<svg id="Layer_1" data-name="Layer 1" xmlns="http://www.w3.org/2000/svg" viewBox="0 0 269.46 131.22"><defs><style>.cls-1{fill:#5dfdcb;}</style></defs><title>batman</title><path class="cls-1" d="M87.18,115a21.18,21.18,0,0,0,7.06,17.76,21.65,21.65,0,0,0,20.28,4.2c8.71-2.74,14.81-10.93,17.47-19.66s2.45-18,2.2-27.15a24.5,24.5,0,0,1,8.37,12.18,4,4,0,0,0,1.16,2.2,3.73,3.73,0,0,0,2.31.51l10.08,0a3.5,3.5,0,0,0,2.26-.5,3.82,3.82,0,0,0,1-1.86A31.44,31.44,0,0,1,167.52,90c.48,9.61.46,19.48,3.4,28.74,2,6.33,5.68,12.35,11.27,15.93a21.51,21.51,0,0,0,33-15.87c.83-7.84-2.68-15.49-6.81-22.22,13.6,3.19,26.49,8.93,38.65,15.77,8.86,5,17.46,10.63,24.49,18s12.43,16.51,13.95,26.55c2.13,14-3.67,28.55-13.31,39-10.66,11.51-25.69,18.53-40.62,22.64-.28.08-.57.13-.9.21,1.18-2.11,2.39-4.11,3.46-6.19a34.39,34.39,0,0,0,3.82-11.28,13.33,13.33,0,0,0-.66-7,9.8,9.8,0,0,0-7.64-6,30.59,30.59,0,0,0-23.49,4.64,39.8,39.8,0,0,0-7.39,6.25,3.18,3.18,0,0,0-.39.61,81.8,81.8,0,0,0-4.54-6.91C178.73,174,156.63,210.1,151,221.24c.69-1.39-5.06-9.18-5.94-10.53a93.59,93.59,0,0,0-7.66-10.17c-5.27-6.1-12.79-15.1-22-12.49-5.26,1.49-8.52,6.55-11.28,11.29,0,.08-.09.16-.14.24a35.29,35.29,0,0,0-27-12c-3.91.07-8.14,1-10.6,4-1.94,2.39-2.42,5.68-2.17,8.75.53,6.56,3.91,12.5,7.22,18.2-12.7-3.58-25-8.85-35.43-17.1s-18.2-20.25-19.47-33.44c-2.06-21.38,13.28-40,30-51.28a139.41,139.41,0,0,1,23.42-12.31c4.19-1.78,8.43-3.42,12.68-5,3.31-1.23,7.44-2.72,10.87-3C90,101,87.85,107.25,87.18,115Z" transform="translate(-16.42 -90.01)"/></svg>