<svg id="Layer_1" data-name="Layer 1" xmlns="http://www.w3.org/2000/svg" viewBox="0 0 262.67 215.91"><defs><style>.cls-1{fill:#5dfdcb;}</style></defs><title>lizzard</title><path class="cls-1" d="M137.12,186.65a16.19,16.19,0,0,0,2.38-6.13c.22-2.26-.72-4.8-2.78-5.74-1.41-.65-3-.44-4.6-.38a24.44,24.44,0,0,1-10.31-1.82c-2.72-1.12-5.31-2.76-8.24-3.05-3.44-.34-6.74,1.22-9.93,2.54C91,177.29,77.22,179.16,64.28,183.6s-25.77,12.34-31,25a31.41,31.41,0,0,0,30.54,43.3,15.59,15.59,0,0,1,5.15.19c1.65.48,3.19,1.92,3.13,3.64-.09,2.19-2.48,3.46-4.58,4.07-13,3.78-27.79-.78-37.16-10.55S17.05,225.1,19,211.7,28.56,186,39,177.37c14.51-12.07,33.54-17,50-26.37a7,7,0,0,0,2.9-2.51c.79-1.51.41-3.35,0-5-1.79-7.32-3-15.18-5.59-22.24-3.51.29-7.55,4.48-9.93,7.06a6.53,6.53,0,1,1-8.46,6.17c0-2.09.76-4.79-1.06-5.8-1.23-.69-2.81.09-3.67,1.2s-1.29,2.49-2.06,3.66a6.54,6.54,0,0,1-7.71,2.56c-2.71-1.14-4.15-4.78-2.68-7.33,1.15-2,3.5-2.86,5.47-4.05s3.84-3.39,3.08-5.56c-3.42,1.16-7.7,2-10.24-.61a5.08,5.08,0,0,1,5.86-8.13c1.1.54,2,1.45,3,2.08a3.2,3.2,0,0,0,3.44.22c-.8-2.34-3.58-3.47-4.68-5.69a4.55,4.55,0,0,1,6-6.12c3.11,1.47,3.79,5.93,6.84,7.53-1.34-.7-2.51-6.52-2.18-8.14a5.3,5.3,0,0,1,5.51-4.4c2.44.08,4,1.73,4.32,4.7a29.16,29.16,0,0,1-.14,3.79c2-2.75,4-5.16,5.68-7.78,3.83-6.07,8.29-5.94,14-1.93,11.12,7.87,14.11,21.43,18.48,33.54,7.76-5,10.08-15.23,15.91-22.4,5.66-7,14.5-10.77,23.38-12s17.92-.3,26.83.8A114.15,114.15,0,0,0,175.71,73c-2.65,2.85-7.2,4.21-10.57,2.26s-4-7.66-.71-9.66c1.88-1.13,4.23-.85,6.41-1.08s4.67-1.47,4.76-3.66c.11-2.62-3.09-3.9-4.79-5.89A5.94,5.94,0,1,1,180,47.34c2.47,3.07,1.67,8.23,4.83,10.58,3.54-1.3,1.27-7.08,3.36-10.23s7.58-1.39,8.67,2.18-1,7.38-3.83,9.84c1.76-1.84,3.6-3.74,6-4.6s5.49-.36,6.8,1.82.19,5.4-1.89,7-4.81,2.21-7.42,2.72c-1.27.94,0,3.12,1.59,3.41s3.17-.36,4.75-.16c4.06.51,5,7,1.74,9.4s-8.4.71-10.59-2.74a44.84,44.84,0,0,0,11,22.13c.86.93,1.89,1.89,3.16,1.89,2.12,0,3.17-2.48,4-4.43,3.74-8.7,13.19-13.86,22.59-15s18.85,1,28,3.42c8.05,2.08,17.63,6,18.4,14.33.46,5-2.7,9.56-6,13.32a86.86,86.86,0,0,1-25.55,19.81c-8.78,4.48-20.5,7-27.72.31-1.84-1.72-3.78-4.13-6.24-3.62a6,6,0,0,0-3,2.12,79.11,79.11,0,0,0-16,26.88c-1,2.76-.9,7,2,7.29-.51-3.45.5-9.57,5.18-9.52a4.42,4.42,0,0,1,4.07,3.06c.87,2.85-1.14,6.6,1.06,8.61a8.44,8.44,0,0,1,5.5-3.9,6,6,0,0,1,6,2.54,4.61,4.61,0,0,1-1.3,6.12c-1.23.76-2.77.8-4.12,1.33s-2.58,2-1.94,3.33a5.07,5.07,0,0,1,6,5c-.2,3-6.11,6.38-9.11,1.38.62.46,1.07,3.77,0,6a4.19,4.19,0,0,1-7,1c-1.58-1.58-1-3.95-1.81-5.77a4.74,4.74,0,1,1-9.14.37c.41-1.82,1.86-3.33,1.94-5.19.11-2.44-2.21-4.32-4.51-5.13s-4.85-1-6.94-2.28c-3.33-2-4.67-6.35-4.24-10.22.36-3.33,2-5.88,3.11-8.95.42-1.22.82-8.37.91-8.44A27,27,0,0,1,160,150c-4.23-.87-8.26-2.78-12.57-3.06s-9.29,1.77-10.34,6c5.52,1.8,11.21,3.71,15.54,7.58s6.95,10.28,4.69,15.63c-1.41,3.33-4.42,5.72-6.19,8.87-1.15,2.05-2.11,6.88.37,8.5s5.89-1.17,8.71,1.09a5.47,5.47,0,0,1,1.37,6.48,6.17,6.17,0,0,1-5.88,3.28c-2.6-.2-6-1.57-7.22.74s2,4.39,2.94,6.8c1.49,3.76-3.64,7.56-7.39,6s-5.37-6.1-5-10.13c-1.26,2.15-2.6,4.37-4.7,5.71s-5.19,1.47-6.84-.39-1.26-4.53,0-6.46a16,16,0,0,1,5.31-4.39c-2.53,1.53-5.79,2.32-8.42,1s-3.76-5.41-1.54-7.35c2.47-2.17,6.8-.41,9.34-2.5-.68-2.21-3.84-2.21-5.64-3.66-2.69-2.15-.91-7.15,2.45-7.92s6.79,1.8,8,5Z" transform="translate(-18.52 -45.2)"/></svg> 