<?xml version="1.0" encoding="utf-8"?>
<!-- Generator: Adobe Illustrator 23.1.1, SVG Export Plug-In . SVG Version: 6.00 Build 0)  -->
<svg version="1.1" id="Layer_1" xmlns="http://www.w3.org/2000/svg" xmlns:xlink="http://www.w3.org/1999/xlink" x="0px" y="0px"
	 viewBox="0 0 250.4 250.4" style="enable-background:new 0 0 250.4 250.4;" xml:space="preserve">
<style type="text/css">
	.st0{fill:none;stroke:#757FF5;stroke-width:2;stroke-miterlimit:10;}
	.st1{fill:#757FF5;}
	.st2{font-family:'Helvetica-Light';}
	.st3{font-size:77px;}
	.st4{letter-spacing:10;}
</style>
<title>bet</title>
<circle class="st0" cx="125.2" cy="125.2" r="124.2"/>
<path class="st0" d="M247.9,105.7H226c-1.9,0-3.4,1.5-3.4,3.4v31.7c0,1.9,1.5,3.4,3.4,3.4h21.9"/>
<path class="st0" d="M3.2,105.9h21.9c1.9,0,3.4,1.5,3.4,3.4c0,0,0,0,0,0v31.7c0,1.9-1.5,3.4-3.4,3.4c0,0,0,0,0,0H3.2"/>
<path class="st0" d="M203.6,221.5l-10.9-19c-0.9-1.6-3-2.2-4.6-1.3l-27.5,15.8c-1.6,0.9-2.2,3-1.3,4.6c0,0,0,0,0,0l10.9,19"/>
<path class="st0" d="M47.7,221.5l10.9-19c0.9-1.6,3-2.2,4.7-1.3l27.5,15.8c1.6,0.9,2.2,3,1.3,4.6l-10.9,19"/>
<path class="st0" d="M47.6,29.1l10.9,19c0.9,1.6,3,2.2,4.7,1.3l27.5-15.8c1.6-0.9,2.2-3,1.3-4.6c0,0,0,0,0,0l-10.9-19"/>
<path class="st0" d="M203.1,29.1l-10.9,19c-0.9,1.6-3,2.2-4.6,1.3l-27.5-15.8c-1.6-0.9-2.2-3-1.3-4.6l10.9-19"/>
<text transform="matrix(1 0 0 1 106.27 152.09)" class="st1 st2 st3 st4">$</text>
<circle class="st0" cx="126.2" cy="125.2" r="80.1"/>
</svg>
