<svg id="Layer_2" data-name="Layer 2" xmlns="http://www.w3.org/2000/svg" viewBox="0 0 216.9 214.8"><defs><style>.cls-1{fill:none;stroke:#7186f5;stroke-miterlimit:10;stroke-width:2px;}.cls-2{fill:#7186f5;}</style></defs><title>compete</title><path class="cls-1" d="M62.11,248.5H252.79a11.71,11.71,0,0,0,11.71-11.71V180.21a11.71,11.71,0,0,0-11.71-11.71H193.5V98.21A11.71,11.71,0,0,0,181.79,86.5H133.21A11.71,11.71,0,0,0,121.5,98.21V132.5H61.31A11.71,11.71,0,0,0,49.6,144.31l.8,92.58A11.71,11.71,0,0,0,62.11,248.5Z" transform="translate(-48.6 -34.7)"/><line class="cls-1" x1="72.9" y1="97.8" x2="72.9" y2="213.8"/><line class="cls-1" x1="144.9" y1="133.8" x2="144.9" y2="213.8"/><path class="cls-2" d="M230.38,130.17a28.49,28.49,0,0,0,4.1-.27,9.16,9.16,0,0,0,3.18-1.05,5.66,5.66,0,0,0,2.07-2.08,6.62,6.62,0,0,0,.75-3.35,6.12,6.12,0,0,0-.6-2.82,5.35,5.35,0,0,0-1.62-1.93,7.14,7.14,0,0,0-2.4-1.1,11.83,11.83,0,0,0-2.88-.35,8.31,8.31,0,0,0-3.07.55,6.79,6.79,0,0,0-2.38,1.58,7.19,7.19,0,0,0-1.55,2.4,8,8,0,0,0-.55,3h-3.2a10.84,10.84,0,0,1,.83-4.32,10.64,10.64,0,0,1,2.57-3.58,7.73,7.73,0,0,1,3.73-1.92,20.69,20.69,0,0,1,4.27-.43,14.19,14.19,0,0,1,3.93.53,9,9,0,0,1,3.17,1.6,7.63,7.63,0,0,1,2.15,2.72,8.8,8.8,0,0,1,.8,3.85,9,9,0,0,1-1.22,4.75,7.91,7.91,0,0,1-3.78,3.1,9.66,9.66,0,0,1,3.13,1.58,8,8,0,0,1,1.92,2.15,7.62,7.62,0,0,1,1,2.47,13,13,0,0,1,.25,2.5,11,11,0,0,1-.75,4.1,9.62,9.62,0,0,1-2.2,3.35,10.94,10.94,0,0,1-3.57,2.33,13.27,13.27,0,0,1-4.83.92,22.36,22.36,0,0,1-5.3-.55,8.89,8.89,0,0,1-3.75-1.82,8.62,8.62,0,0,1-2.35-3.35,18.42,18.42,0,0,1-1.15-5.18h3.2a7.63,7.63,0,0,0,2.43,6.13,10.45,10.45,0,0,0,9.87,1.42,8.72,8.72,0,0,0,2.83-1.75,7.59,7.59,0,0,0,1.8-2.55,7,7,0,0,0,.57-3,7.25,7.25,0,0,0-1-3.57,6.47,6.47,0,0,0-2.42-2.25,10.31,10.31,0,0,0-3.58-1.1,21.47,21.47,0,0,0-4.35-.13Z" transform="translate(-48.6 -34.7)"/><path class="cls-2" d="M155.75,43.75h-9.1v-2.1c1.34-.1,2.54-.24,3.63-.4a8.47,8.47,0,0,0,2.85-1,5.93,5.93,0,0,0,2.05-2,10.18,10.18,0,0,0,1.22-3.57H159V70h-3.2Z" transform="translate(-48.6 -34.7)"/><path class="cls-2" d="M71.18,94.22a13.45,13.45,0,0,1,.8-4.73,10.05,10.05,0,0,1,5.92-6,14.29,14.29,0,0,1,9.4,0,10.11,10.11,0,0,1,3.4,2.08,8.44,8.44,0,0,1,2.08,3.1,11.05,11.05,0,0,1-.08,7.95,11.37,11.37,0,0,1-2,3.2,15.91,15.91,0,0,1-2.9,2.5c-1.08.73-2.19,1.42-3.32,2.07s-2.25,1.28-3.35,1.88a22.39,22.39,0,0,0-3,1.9c-.57.43-1.12.89-1.65,1.37A12,12,0,0,0,75,111.07a8,8,0,0,0-1,1.87,6.9,6.9,0,0,0-.45,2.28H93.18v2.7H70.13a21.24,21.24,0,0,1,.55-4.6,9.57,9.57,0,0,1,2.2-4,26.59,26.59,0,0,1,3.82-3.6q2-1.5,3.88-2.68c1.27-.78,2.47-1.5,3.6-2.15a18.17,18.17,0,0,0,3-2.12,8.89,8.89,0,0,0,2-2.6A7.67,7.67,0,0,0,90,92.62a7.45,7.45,0,0,0-.6-3.05,6.73,6.73,0,0,0-1.65-2.3,7.06,7.06,0,0,0-2.45-1.43,9.61,9.61,0,0,0-3-.47,7,7,0,0,0-3.18.72A8.09,8.09,0,0,0,76.6,88,8.61,8.61,0,0,0,75,90.82a8.73,8.73,0,0,0-.45,3.4Z" transform="translate(-48.6 -34.7)"/></svg>