<svg id="Layer_1" data-name="Layer 1" xmlns="http://www.w3.org/2000/svg" viewBox="0 0 267.4 158.4"><defs><style>.cls-1{fill:#5dfdcb;}</style></defs><title>scissors</title><path class="cls-1" d="M281,123.91c-5.6-6.53-7.39-7.78-14.74-10.3-12.82-4.38-26.82-.41-39.76,3.57q-40.86,12.55-81.68,25.16c-6,1.84-12.06,3.69-18.29,3.43-7-.3-13.5-3.21-20-5.73a192.9,192.9,0,0,0-25.61-7.92c-2-.48-4.42-1.19-5.12-3.17s.64-3.95,1.69-5.72c5.63-9.46,4.2-22.3-2.58-31S56.71,79.12,45.72,79.8c-9,.56-17.93,4.5-23.69,11.44-10.6,12.77-7.22,34.24,6.24,43.94,11.43,8.23,26.6,8,40.43,10.73a92.68,92.68,0,0,1,36.74,16c-11.24,10.74-28.39,11.44-43.93,12.14s-33,3-42.36,15.43c-7.61,10.05-7.24,25.12.21,35.29s21.1,15.09,33.5,12.82c9-1.63,17.32-6.87,22.08-14.62s5.57-17.95,1.47-26.06c-.91-1.8-2-4-.91-5.66a5.15,5.15,0,0,1,3.31-1.7l29-6.67c6.17-1.41,12.44-2.84,18.75-2.4,16.73,1.15,34.77,11.82,49.9,18.42,17.49,7.63,34.94,15.45,53.11,21.37,15.23,4.95,33.46,7.26,45.77-5.34L152.13,163.55c42.77-13.81,85.41-28.17,128.88-39.64m-215.62-4.3a16.85,16.85,0,0,1-3.81,5.24c-5.19,4.78-14.38,5.46-21.13,3.43-10.32-3.09-14.92-15.81-11.27-25.09C33.27,92.78,46,88.64,57.44,93.64,66.75,97.69,69.78,110.28,65.39,119.61ZM47.74,227a19.5,19.5,0,1,1,17.7-21.16A19.51,19.51,0,0,1,47.74,227Z" transform="translate(-13.61 -79.73)"/></svg>