<svg id="Layer_1" data-name="Layer 1" xmlns="http://www.w3.org/2000/svg" viewBox="0 0 300 161.45"><defs><style>.cls-1,.cls-2{fill:none;stroke:#5dfdcb;stroke-miterlimit:10;stroke-width:3px;}.cls-2{stroke-linecap:round;}</style></defs><title>hand_rock</title><path class="cls-1" d="M214.06,56.48a19.72,19.72,0,0,1-9.47.11,7.19,7.19,0,0,1-4.2-2.71c-6.83-9.27-18-16.9-31.32-23.75a16.2,16.2,0,0,0-13.64-.62c-6.79,2.82-14.84,7.8-23.4,13.64a4.43,4.43,0,0,1-3.56.62,26.12,26.12,0,0,0-10-.14,8.85,8.85,0,0,0-5.85,3.52c-3.85,5.37-4,11.73-2.57,18.52a.07.07,0,0,1,0,.08c-7.6,5.08-9,20.41,1.61,25.55a.07.07,0,0,1,0,.13c-7.25,5.41-3.43,21.6,6.82,22.89a.07.07,0,0,1,0,.12c-3.71,5.25-.09,14.42,7,17.06h0c11.45,3,20,4.62,25.85,4.85a22,22,0,0,0,4.58-.31,255.64,255.64,0,0,0,42.91-11.26,9.38,9.38,0,0,0,4.48-3.39c3.58-5.09,7.23-8.49,11-8.6a.08.08,0,0,0,.08-.07l-.22-56.17A.08.08,0,0,0,214.06,56.48Z"/><path class="cls-1" d="M214.16,56.45c-.2-3.26,3.57-4.11,9.24-3.81l.72,63.81c-5.44.57-10.06.47-9.74-3.65"/><path class="cls-1" d="M224.12,116.45l.18,3.21a1.76,1.76,0,0,0,1.6,1.66l26.39,2.42a1.76,1.76,0,0,0,1.93-1.75l.47-77.86a1.76,1.76,0,0,0-2.07-1.75l-27.85,4.87A1.77,1.77,0,0,0,223.3,49l.1,3.6Z"/><path class="cls-2" d="M130.51,43.8c-.39,9.75-2.42,18-6.07,23.92a5.57,5.57,0,0,0-.89,3.54c.43,3.6,4,5.78,8.94,5.14A14.63,14.63,0,0,0,143.13,69c2-3.51,3.23-6.58,3.37-9a1.15,1.15,0,0,1,1.07-1.09,32.12,32.12,0,0,1,6.51.19,1.17,1.17,0,0,1,1,1.09C156.4,79.23,165,90.66,180,95.4"/><path class="cls-2" d="M110,65.72c4.55,2.72,9.06,4.73,13.48,4.88"/><path class="cls-2" d="M140.07,72.84c9.2,1.8,12.74,11.54,5.8,18.54,8.54,1.83,11.48,11.32,4.56,17.39,5.49,2.75,7.78,10.85,2.29,14.89a20.78,20.78,0,0,1-7.91,3.56"/><line class="cls-2" x1="158.37" y1="75.74" x2="148.9" y2="79.82"/><path class="cls-2" d="M145.87,91.38A38,38,0,0,1,123,91.9"/><path class="cls-2" d="M150.43,108.77a8.45,8.45,0,0,1-3.79.81"/><path class="cls-2" d="M118.57,114.33c8,0,14.69-.52,19.64-1.69"/></svg>