<svg id="Layer_1" data-name="Layer 1" xmlns="http://www.w3.org/2000/svg" viewBox="0 0 300 161.45"><defs><style>.cls-1,.cls-2{fill:none;stroke:#5dfdcb;stroke-miterlimit:10;stroke-width:3px;}.cls-2{stroke-linecap:round;}</style></defs><title>hand_scissors</title><path class="cls-1" d="M214.6,112.59a.08.08,0,0,0,.08-.07v-56a.08.08,0,0,0-.1-.08"/><path class="cls-2" d="M214.67,56.36c-.19-3.25,3.58-4.08,9.23-3.76l.48,63.66c-5.43.55-10,.44-9.7-3.67-12.22-9.74-45.84,22.26-75.12,12.73a100.55,100.55,0,0,0,12.5-7.56,12.93,12.93,0,0,0,3.73-4c4-6.8-.79-13.56-9.24-13.69,6.19-6,4.34-12.91-2.18-15.48a12.51,12.51,0,0,0-7.7-.35C123.83,87.62,99.1,92.46,75.2,97.2a13.11,13.11,0,0,1-5.33,0c-6.21-1.39-8.38-7-6.29-11.76a9.57,9.57,0,0,1,7-5.37l53.73-10.83a2.26,2.26,0,0,0,1.63-1.34l1.72-4.63c.08-.19,0-.23-.15-.23L73,62.33a16.27,16.27,0,0,1-5.9-1.12C59,57.9,59,50.3,64.71,46.41a11.52,11.52,0,0,1,6.49-1.9l56.68-.4a14.82,14.82,0,0,0,8.06-2.45L150.69,32a20.82,20.82,0,0,1,10.53-3.56,20.08,20.08,0,0,1,10,2.18l18.71,12.25a39.48,39.48,0,0,1,8.58,7.79C203.45,56.6,208.87,58.29,214.67,56.36Z"/><path class="cls-1" d="M224.38,116.26l.17,3.21a1.78,1.78,0,0,0,1.6,1.67l26.32,2.51a1.76,1.76,0,0,0,1.93-1.74l.77-77.69a1.77,1.77,0,0,0-2.07-1.76l-27.81,4.76A1.78,1.78,0,0,0,223.82,49l.08,3.6Z"/><path class="cls-2" d="M131.25,43.69,128.37,60.3a25.51,25.51,0,0,1-1.55,5.36l-1,2.43c-.26.62-.56,1.22-.85,1.83-4,8.27,1,14.76,8.41,13.36a12.39,12.39,0,0,0,8.14-5.76c3.57-5.78,5.67-12.57,7.12-19.79"/><path class="cls-2" d="M147.23,63.81a31.38,31.38,0,0,0,4.63.8A3.55,3.55,0,0,1,155,67.34c3.08,13.27,11.5,23,26.4,28.31"/><line class="cls-2" x1="146.55" y1="100.11" x2="128.96" y2="107.15"/><path class="cls-2" d="M139.56,125.32l-13.38,1.37a15.4,15.4,0,0,1-4.07-.09c-7.72-1.35-9.74-8.28-5.18-14a.24.24,0,0,0-.17-.4C101.05,110.31,99.94,100,106.23,91"/></svg>