<svg id="Layer_1" data-name="Layer 1" xmlns="http://www.w3.org/2000/svg" viewBox="0 0 300 161.45"><defs><style>.cls-1,.cls-2{fill:none;stroke:#5dfdcb;stroke-miterlimit:10;stroke-width:3px;}.cls-1{stroke-linecap:round;}</style></defs><title>hand_lizard</title><path class="cls-1" d="M214.13,104.07c-10.6-3.67-23.28-4.36-34.15-2.89-5.26.71-22.32,12.21-27.61,11.92a112.85,112.85,0,0,0-43.9,5.82,6.4,6.4,0,0,1-5.27-.94c-5.51-3.33-1.94-10,4.89-14.11,10.74-5.85,23.52-6.13,31.23-8.69a17,17,0,0,0,5-2.4c5-5.24-.18-10.73-1.87-17.23a2.66,2.66,0,0,0-3.06-2c-14.54,2.66-21.19-1.95-28.27,9.39-1.43,2.3-6.49,9.43-9.91,13.54-2.93,3.51-6.84,9.7-11,11.86a7.71,7.71,0,0,1-2.51.82A7.28,7.28,0,0,1,81.45,107a7.85,7.85,0,0,1-.35-10.27,345,345,0,0,0,22.11-32.26,11.65,11.65,0,0,1,6.22-4.95l32-8.69"/><path class="cls-2" d="M214.75,63c-3.73,2.25-6.27,4.29-9.17,2.55L167.5,46.19c-2.73-1.38-5.31-3-7.92-4.6a11.34,11.34,0,0,0-7.76-1.48,247.28,247.28,0,0,0-45,7.57,7.67,7.67,0,0,0-5.2,3.45L70.83,96.32c-4.27,6.36,4.37,13.73,9,8"/><path class="cls-2" d="M214.56,112.61a.08.08,0,0,0,.07-.08l-.08-56a.08.08,0,0,0-.1-.08"/><path class="cls-1" d="M214.55,56.46c-.2-3.25,3.57-4.08,9.21-3.77l.57,63.57c-5.42.55-10,.44-9.7-3.66"/><path class="cls-2" d="M224.33,116.26l.17,3.2a1.77,1.77,0,0,0,1.6,1.66l26.28,2.47a1.76,1.76,0,0,0,1.93-1.74L255,44.29a1.77,1.77,0,0,0-2.06-1.76l-27.76,4.79a1.76,1.76,0,0,0-1.46,1.78l.08,3.59Z"/></svg>