<svg id="Layer_1" data-name="Layer 1" xmlns="http://www.w3.org/2000/svg" viewBox="0 0 300 300">
  <title>hand_paper</title>
  <path d="M27.87,129c31.43-1.25,62.91-.76,94.32.76s62.5,4,93.69,6.82c5.37.49,11.21.84,15.89,3.82a8.38,8.38,0,0,1,3.8,4.9c.84,3.28-.75,6.72-2.16,9.62-5.29,10.91-14.32,19.57-24.69,25.67-11.93,7-25.61,10.51-39.28,12.06-14.88,1.69-30,1.44-44.91.61-15.62-.88-31.19-2.61-46.72-4.55s-31.21-4-46.81-6l-11.36-1.48c-1.91-.24-1.89,2.76,0,3q24.18,3.15,48.36,6.28c15.85,2,31.72,4,47.67,5.2,15.56,1.17,31.28,1.74,46.87.62,14.39-1,28.86-3.74,41.94-10,11.08-5.33,21.11-13.28,28-23.58a52.6,52.6,0,0,0,4.37-8c1.37-3.13,2.49-6.48,1.74-9.91-1.14-5.18-6.1-8-10.8-9.4-6.19-1.85-12.9-1.91-19.29-2.47q-12.12-1.08-24.27-2.06c-16-1.29-32.05-2.45-48.09-3.37-32.06-1.84-64.2-2.74-96.3-1.89q-6,.15-11.92.39c-1.92.08-1.93,3.08,0,3Z"/>
  <path d="M190.4,132.68a71.18,71.18,0,0,1,7.67-14.61,67.65,67.65,0,0,1,5.2-6.72,28.57,28.57,0,0,1,5.95-5.62c2.43-1.52,5-1.59,7.2.35a11.27,11.27,0,0,1,3.43,5.72A12.41,12.41,0,0,1,216.28,124c-3.4,3.36-7.95,6.14-9,11.15-.39,1.89,2.5,2.69,2.9.8,1-4.84,6.08-7.38,9.17-10.8a15.3,15.3,0,0,0,3.36-14.3c-1.4-5.11-6.08-10.5-11.9-9-2.92.73-5.32,2.85-7.36,5a75.68,75.68,0,0,0-5.87,6.89,74.73,74.73,0,0,0-10.07,18.25c-.69,1.8,2.21,2.58,2.9.8Z"/>
  <path d="M218.08,138.82a78.5,78.5,0,0,1,45.59,2.89c1.17.44,3.06.84,3.89,1.83s.32,2.14-.19,3c-2.64,4.54-9.64,4-14,3.17-6.79-1.35-13.56-4.42-20.54-2.28-1.14.35-1.58,2.16-.36,2.74a42.6,42.6,0,0,0,28.79,2.92,40.64,40.64,0,0,0,4.43-1.4,10.94,10.94,0,0,1,3.53-.9c1.06,0,1.65.2,1.46,1.36a8.26,8.26,0,0,1-1.79,3.63,14,14,0,0,1-6.5,4.37c-6.67,2.29-13.74.24-20.35-1.22-7.13-1.58-14.88-2.62-21.58,1a1.51,1.51,0,0,0,.36,2.74l21,3.52L252.31,168c3.18.53,6.44.89,9.57,1.68,2.24.57,4.68,1.72,4.81,4.34a6.46,6.46,0,0,1-3.93,5.88c-2.59,1.23-5.6,1.23-8.39,1a48.2,48.2,0,0,1-9.38-1.61,82.08,82.08,0,0,1-19.75-8.63l-1.16,2.74,13.15,2.8c3.58.76,7.21,1.4,10.7,2.48a18,18,0,0,1,7.91,4.38,8.45,8.45,0,0,1,2,8.09,13.08,13.08,0,0,1-5.75,7.41c-3.35,2.08-7.43,2.5-11.29,2.24a58.4,58.4,0,0,1-12.25-2.55c-4.17-1.2-8.3-2.58-12.38-4.06-9.18-3.32-18.14-7.21-27.09-11.1-1.75-.76-3.28,1.82-1.51,2.59,8.68,3.77,17.36,7.55,26.24,10.84,4.37,1.61,8.79,3.11,13.26,4.43a65.65,65.65,0,0,0,13.5,2.83c7.81.58,16.09-2.25,19.44-9.86a11.75,11.75,0,0,0,0-10.05,14.6,14.6,0,0,0-7.06-6.44A52.09,52.09,0,0,0,241.14,174l-16.26-3.46a1.51,1.51,0,0,0-1.16,2.74,86.94,86.94,0,0,0,19.41,8.64,54.39,54.39,0,0,0,10.36,1.94,21.63,21.63,0,0,0,9.69-.9,10.07,10.07,0,0,0,6-5.94,7.28,7.28,0,0,0-1.49-7.66c-2.1-2.13-5.2-2.69-8-3.16l-11.71-2-26.34-4.41.35,2.74c6.55-3.54,14.28-1.84,21.13-.29s14,3.14,20.76.56a17,17,0,0,0,7.16-4.9c1.66-2,3.73-5.6,2.22-8.21-1.32-2.26-4.33-2.1-6.53-1.51-1.43.38-2.8,1-4.21,1.44a41.14,41.14,0,0,1-5.35,1.26A39.55,39.55,0,0,1,234,147.6l-.36,2.74c6.84-2.09,13.6,1.45,20.29,2.53,5.39.87,12.51.63,15.84-4.5,1.44-2.23,1.75-5.33-.4-7.23a12.93,12.93,0,0,0-4.08-2c-1.66-.65-3.34-1.23-5-1.76a81.64,81.64,0,0,0-43-1.45c-1.88.44-1.08,3.34.8,2.89Z"/>
</svg>
