<svg id="Layer_1" data-name="Layer 1" xmlns="http://www.w3.org/2000/svg" viewBox="0 0 300 161.45"><defs><style>.cls-1,.cls-2,.cls-3{fill:none;stroke:#5dfdcb;stroke-width:3px;}.cls-1,.cls-3{stroke-miterlimit:10;}.cls-2,.cls-3{stroke-linecap:round;}.cls-2{stroke-linejoin:round;}</style></defs><title>hand_spider-man</title><path class="cls-1" d="M214.14,61c-11.07.2-20.54-2.74-28.18-9.28A24.36,24.36,0,0,0,177,46.84c-21.61-6.3-28.51-12.51-33.94-23.51-3.71-7.26-13.36-6.21-15,1-.9,4.62,2,11.49,4.54,16.38a36.78,36.78,0,0,0,7.51,9.88c3.63,3.41,9,8.16,13.31,10.82l-26.85,1.2c-10,1.07-11.15,15.06-.35,16.57a0,0,0,0,1,0,.09c-12.69,2.56-13.26,18.56.7,19.92a0,0,0,0,1,0,.09c-9.31,3.44-8.33,16.65,7,17.52l-25.45,18.37a12.24,12.24,0,0,0-2.08,1.85c-5.11,5.89-1,13.32,7.34,12.06a11.12,11.12,0,0,0,5-2.16c14.93-11,30-17.47,45.15-18.43.6,0,1.21,0,1.81,0,11.41.33,20.17-3,26.13-10.32a11,11,0,0,1,.86-.95c5.25-5.08,13.09-8.34,21.89-10.93"/><line class="cls-2" x1="126.51" y1="79.14" x2="144.59" y2="79.1"/><line class="cls-2" x1="126.47" y1="99.26" x2="146.4" y2="96.97"/><path class="cls-1" d="M133.91,116.75,159,111.81c7.76-2,7.24-14.27-2.68-15.7a.11.11,0,0,1,0-.2c6.19-4.17,5.72-12.84-.73-16.08a.11.11,0,0,1,0-.19c7.84-4.9,7.32-14.94-2.12-18.28"/><path class="cls-1" d="M215.72,112.81a.07.07,0,0,0,.07-.08l-.38-55.9a.07.07,0,0,0-.1-.07"/><path class="cls-3" d="M215.41,56.73c-.22-3.25,3.53-4.1,9.18-3.82l.91,63.5c-5.41.58-10,.5-9.71-3.6"/><path class="cls-1" d="M225.5,116.41l.19,3.19a1.76,1.76,0,0,0,1.6,1.66l26.27,2.32a1.77,1.77,0,0,0,1.92-1.75l.23-77.49a1.76,1.76,0,0,0-2.07-1.74l-27.71,4.94a1.76,1.76,0,0,0-1.45,1.78l.11,3.59Z"/></svg>