<svg id="Layer_1" data-name="Layer 1" xmlns="http://www.w3.org/2000/svg" viewBox="0 0 300 161.45"><defs><style>.cls-1{fill:none;stroke:#5dfdcb;stroke-linecap:round;stroke-linejoin:round;stroke-width:3px;}</style></defs><title>hand_batman</title><path class="cls-1" d="M214.91,113a.07.07,0,0,0,.08-.08l-.61-56a.08.08,0,0,0-.1-.08"/><path class="cls-1" d="M214.38,56.83c-.23-3.25,3.53-4.12,9.18-3.86l1.17,63.59c-5.42.61-10,.55-9.74-3.56"/><path class="cls-1" d="M224.73,116.56l.2,3.21a1.75,1.75,0,0,0,1.61,1.64l26.32,2.23a1.76,1.76,0,0,0,1.91-1.76l-.07-77.61a1.78,1.78,0,0,0-2.09-1.74l-27.72,5a1.77,1.77,0,0,0-1.45,1.8l.12,3.59Z"/><path class="cls-1" d="M214.38,60.1l-8.3.93a12.29,12.29,0,0,1-9.43-3,63.13,63.13,0,0,0-20.39-11.48,12.63,12.63,0,0,0-9.58.44l-.13.06A28.82,28.82,0,0,1,155,49.71c-2.28,0-4.82.06-7.14,0a31.82,31.82,0,0,1-4.87-.43L87.06,40.12a8.24,8.24,0,0,0-3.13.05,7.69,7.69,0,0,0-5.28,4.24c-2.33,4.88.29,10,5.54,11.29l45,11a.07.07,0,0,1,0,.13c-12,2.22-13.41,18.37.47,20.29a.09.09,0,0,1,0,.16C122.8,91,122,101.8,131.8,105.33a.16.16,0,0,1,0,.32l-40.83,4.71a8.62,8.62,0,0,0-2.49.64,7.46,7.46,0,0,0-.12,13.65,8.19,8.19,0,0,0,3.75.66l51.67-2.55a23,23,0,0,1,3.62.1c22.09,2.36,40.61.37,50.94-11.53a9.4,9.4,0,0,1,8.26-3.18l7.62,1"/><path class="cls-1" d="M179.23,87.31a24.35,24.35,0,0,1-11.91-16.76.85.85,0,0,0-1.13-.62,11.68,11.68,0,0,1-5,.82.66.66,0,0,0-.68.59c-1.28,10-7,21.84-15.12,20.11a5.46,5.46,0,0,1-4.14-6.67l5.08-20.67a13.42,13.42,0,0,1,5.95-8.2c5.88-2.64,10.75-5.56,14.27-8.84"/><path class="cls-1" d="M146.74,105.83l12.12,0a7.38,7.38,0,0,0,3-.64c7.61-3.51,7.69-15-1.71-18.58"/><line class="cls-1" x1="137.76" y1="66.98" x2="145.48" y2="67.18"/></svg>