<svg id="Layer_1" data-name="Layer 1" xmlns="http://www.w3.org/2000/svg" viewBox="0 0 300 300">
  <title>hand_lizard</title>
  <path d="M27.87,129c31.43-1.25,62.91-.76,94.32.76s62.5,4,93.69,6.82c5.37.49,11.21.84,15.89,3.82a8.38,8.38,0,0,1,3.8,4.9c.84,3.28-.75,6.72-2.16,9.62-5.29,10.91-14.32,19.57-24.69,25.67-11.93,7-25.61,10.51-39.28,12.06-14.88,1.69-30,1.44-44.91.61-15.62-.88-31.19-2.61-46.72-4.55s-31.21-4-46.81-6l-11.36-1.48c-1.91-.24-1.89,2.76,0,3q24.18,3.15,48.36,6.28c15.85,2,31.72,4,47.67,5.2,15.56,1.17,31.28,1.74,46.87.62,14.39-1,28.86-3.74,41.94-10,11.08-5.33,21.11-13.28,28-23.58a52.6,52.6,0,0,0,4.37-8c1.37-3.13,2.49-6.48,1.74-9.91-1.14-5.18-6.1-8-10.8-9.4-6.19-1.85-12.9-1.91-19.29-2.47q-12.12-1.08-24.27-2.06c-16-1.29-32.05-2.45-48.09-3.37-32.06-1.84-64.2-2.74-96.3-1.89q-6,.15-11.92.39c-1.92.08-1.93,3.08,0,3Z"/>
  <path d="M181.6,191.87c.67,5.52,4.82,9.34,9.48,11.89a65.19,65.19,0,0,0,17.6,6.16c12.73,2.74,25.91,2.56,38.81,1.17,6.26-.67,13.24-1,18.71-4.49a33.5,33.5,0,0,0,3.82-2.88,20.29,20.29,0,0,0,3.22-3.06c1.69-2.24.72-5.16-1.09-7-3.74-3.87-9.71-3.2-14.18-1.21-2.86,1.28-5.45,3.06-8.33,4.31a27.81,27.81,0,0,1-9.11,2.19c-14.23,1-26.61-7.41-35.29-18-1.23-1.49-3.34.64-2.12,2.12,7.08,8.62,16.51,15.89,27.64,18.16a34.54,34.54,0,0,0,17.45-.77,45.6,45.6,0,0,0,7.87-3.71c2.34-1.29,4.86-2.69,7.58-2.93a8.27,8.27,0,0,1,5.93,1.52,4,4,0,0,1,1.57,2.57c.06,1.22-1.63,2.26-2.43,3a23.25,23.25,0,0,1-7.65,4.89,45.58,45.58,0,0,1-9,1.78c-12,1.56-24.33,2.27-36.37.59a77.44,77.44,0,0,1-19.5-5.21c-4.75-2-10.95-5.31-11.65-11-.23-1.89-3.23-1.92-3,0Z"/>
  <path d="M230.7,139.12c6.86-3.5,14.83-2.74,22-.5a37.85,37.85,0,0,1,10.4,4.6c3.29,2.33,3.85,6.86,4.07,10.6.19,3.28.45,8.05-2.44,10.31-2.15,1.67-4.94,2.27-7.09,4-2.41,1.91-3.79,5.7-.42,7.43A28.55,28.55,0,0,0,268.56,179c7.48.33,11.88-5.59,14.36-11.88,2.59-6.59,4.85-14.26,4.11-21.41a19.69,19.69,0,0,0-3.82-10.05,28,28,0,0,0-8.29-7,48.56,48.56,0,0,0-22.34-6.51,66.43,66.43,0,0,0-12.43,1,96.78,96.78,0,0,1-12.71,1.12c-3.6.06-7.64.24-10.65,2.46a9.4,9.4,0,0,0-4,7.59,6.53,6.53,0,0,0,1.56,4c1.22,1.5,3.33-.63,2.13-2.12-1.66-2-.15-5,1.49-6.54,2.56-2.37,6.63-2.3,9.9-2.34a87.36,87.36,0,0,0,11.64-1,73.45,73.45,0,0,1,11.75-1.08,45.32,45.32,0,0,1,21.2,5.6,27.1,27.1,0,0,1,8,6.26,16.69,16.69,0,0,1,3.63,9.52c.45,6.66-1.66,13.66-4.08,19.8a18.84,18.84,0,0,1-4.73,7.43c-2.62,2.31-6.1,2.64-9.4,1.86a31.73,31.73,0,0,1-5.45-1.91c-.55-.24-1.82-.55-2.19-1s.12-1.11.44-1.52c1.52-1.93,4.4-2.58,6.44-3.77a9.36,9.36,0,0,0,4.7-7,33.09,33.09,0,0,0-.35-11.53c-.7-3.53-2.18-6.47-5.26-8.48a42.43,42.43,0,0,0-9.55-4.27c-6.58-2.25-13.9-3.35-20.72-1.48a24.68,24.68,0,0,0-4.76,1.88c-1.72.87-.21,3.46,1.51,2.59Z"/>
  <path d="M236.53,143.77c6.32.61,12.7,1.25,18.81,3.13a36.13,36.13,0,0,1,8.58,3.85c2.12,1.34,4.95,3.94,3.26,6.66-1,1.65,1.58,3.16,2.59,1.52,1.85-3,.58-6.62-1.82-8.87-2.59-2.43-6.1-4-9.38-5.22-7-2.63-14.62-3.36-22-4.07-1.93-.19-1.91,2.81,0,3Z"/>
  <path d="M236.84,147.24a61.67,61.67,0,0,1,16.9,4.19c1.35.55,2.67,1.15,4,1.8a4.77,4.77,0,0,1,2.73,2.48,31.91,31.91,0,0,0,4,7.39,1.55,1.55,0,0,0,2,.53,1.5,1.5,0,0,0,.54-2,24.41,24.41,0,0,1-2.58-4.08c-.62-1.25-1-2.62-1.64-3.85-1.42-2.61-4.82-3.68-7.41-4.77a64.49,64.49,0,0,0-18.53-4.64c-1.92-.2-1.91,2.8,0,3Z"/>
</svg>
