<svg id="Layer_1" data-name="Layer 1" xmlns="http://www.w3.org/2000/svg" viewBox="0 0 300 300">
  <title>hand_rock</title>
  <path d="M27.87,129c31.43-1.25,62.91-.76,94.32.76s62.5,4,93.69,6.82c5.37.49,11.21.84,15.89,3.82a8.38,8.38,0,0,1,3.8,4.9c.84,3.28-.75,6.72-2.16,9.62-5.29,10.91-14.32,19.57-24.69,25.67-11.93,7-25.61,10.51-39.28,12.06-14.88,1.69-30,1.44-44.91.61-15.62-.88-31.19-2.61-46.72-4.55s-31.21-4-46.81-6l-11.36-1.48c-1.91-.24-1.89,2.76,0,3q24.18,3.15,48.36,6.28c15.85,2,31.72,4,47.67,5.2,15.56,1.17,31.28,1.74,46.87.62,14.39-1,28.86-3.74,41.94-10,11.08-5.33,21.11-13.28,28-23.58a52.6,52.6,0,0,0,4.37-8c1.37-3.13,2.49-6.48,1.74-9.91-1.14-5.18-6.1-8-10.8-9.4-6.19-1.85-12.9-1.91-19.29-2.47q-12.12-1.08-24.27-2.06c-16-1.29-32.05-2.45-48.09-3.37-32.06-1.84-64.2-2.74-96.3-1.89q-6,.15-11.92.39c-1.92.08-1.93,3.08,0,3Z"/>
  <path d="M204.86,135.69a13.59,13.59,0,0,0,3.22,9c2.25,2.68,5.55,4,8.76,5.21,3.57,1.29,7.37,2.46,11.21,2.15s7.07-1.83,10.38-3.38c1.75-.82.23-3.41-1.51-2.59-2.81,1.31-5.74,2.7-8.87,3s-6.48-.66-9.54-1.73c-2.7-.95-5.58-2-7.65-4a10.5,10.5,0,0,1-3-7.56,1.5,1.5,0,0,0-3,0Z"/>
  <path d="M228.94,150.78a30.51,30.51,0,0,0-12-.37c-3.34.58-6.9,2-8.74,5-1.61,2.62-1.7,6.29.47,8.63,2.44,2.65,6.51,2.36,9.61,1.25a47.88,47.88,0,0,1,6-2.17,13.36,13.36,0,0,1,6.84.42c1.85.58,2.64-2.32.8-2.9a16.36,16.36,0,0,0-10,0c-2.84.92-5.71,2.84-8.82,2.44-2.66-.35-3.74-2.76-2.88-5.17.95-2.66,3.86-3.87,6.41-4.44a26.07,26.07,0,0,1,11.46.16c1.88.44,2.68-2.46.8-2.89Z"/>
  <path d="M229.21,164.52c-8.59.4-17.55.86-25.4,4.75-1.52.75-3.16,1.9-3.71,3.6a3.81,3.81,0,0,0,1.55,4.37,9.13,9.13,0,0,0,4.84,1.15,21.71,21.71,0,0,0,6.82-.6c1.85-.53,1.07-3.43-.79-2.89a17.69,17.69,0,0,1-5.57.5,7.12,7.12,0,0,1-3.54-.59c-2.44-1.57,4.71-4.16,5.59-4.45,6.5-2.2,13.41-2.53,20.21-2.84,1.92-.09,1.94-3.09,0-3Z"/>
  <path d="M204,179.43c-1.67.12-3.26-.36-4.92-.39a7.82,7.82,0,0,0-4.3,1.26,73.46,73.46,0,0,0-7.62,5.52,35.61,35.61,0,0,0-3.33,3.05c-1,1-2.2,2.25-2.49,3.73-.63,3.27,3.64,4.23,6,4.52a13.83,13.83,0,0,0,9.41-2.32c1.58-1.08.08-3.68-1.51-2.59a11.07,11.07,0,0,1-8,1.89,11.35,11.35,0,0,1-2.08-.54c-.2-.07-.81-.22-.91-.41s0,0,.11-.3c.16-.6,1-1.3,1.42-1.73s1.09-1.11,1.67-1.64a69,69,0,0,1,7.48-5.7c1.28-.89,2.48-1.77,4.1-1.74s3.25.51,4.92.39c1.91-.13,1.93-3.13,0-3Z"/>
  <path d="M198.73,131.52a59.78,59.78,0,0,0-13.38,13.42,24.81,24.81,0,0,0-4.11,8.28c-.67,2.71-.85,6.13.76,8.58s4.85,2.81,7.64,2.81a37.17,37.17,0,0,0,9.22-1.05,23.46,23.46,0,0,0,8.34-3.94,48,48,0,0,0,6.68-6.54c4.81-5.41,9.4-11.1,12.59-17.64.84-1.73-1.74-3.25-2.59-1.51a68.37,68.37,0,0,1-9.51,14c-3.56,4.2-7.26,8.88-12.33,11.31a24.42,24.42,0,0,1-7.74,2.09,23.27,23.27,0,0,1-7.81,0c-2.85-.69-3-3.93-2.57-6.35a19.52,19.52,0,0,1,3.18-7.35,53.68,53.68,0,0,1,13.15-13.57c1.54-1.13,0-3.74-1.52-2.59Z"/>
</svg>
