<svg id="Layer_1" data-name="Layer 1" xmlns="http://www.w3.org/2000/svg" viewBox="0 0 300 300">
  <title>hand_scissors</title>
  <path d="M27.87,129c31.43-1.25,62.91-.76,94.32.76s62.5,4,93.69,6.82c5.37.49,11.21.84,15.89,3.82a8.38,8.38,0,0,1,3.8,4.9c.84,3.28-.75,6.72-2.16,9.62-5.29,10.91-14.32,19.57-24.69,25.67-11.93,7-25.61,10.51-39.28,12.06-14.88,1.69-30,1.44-44.91.61-15.62-.88-31.19-2.61-46.72-4.55s-31.21-4-46.81-6l-11.36-1.48c-1.91-.24-1.89,2.76,0,3q24.18,3.15,48.36,6.28c15.85,2,31.72,4,47.67,5.2,15.56,1.17,31.28,1.74,46.87.62,14.39-1,28.86-3.74,41.94-10,11.08-5.33,21.11-13.28,28-23.58a52.6,52.6,0,0,0,4.37-8c1.37-3.13,2.49-6.48,1.74-9.91-1.14-5.18-6.1-8-10.8-9.4-6.19-1.85-12.9-1.91-19.29-2.47q-12.12-1.08-24.27-2.06c-16-1.29-32.05-2.45-48.09-3.37-32.06-1.84-64.2-2.74-96.3-1.89q-6,.15-11.92.39c-1.92.08-1.93,3.08,0,3Z"/>
  <path d="M227.28,170.62l22.77-1.91,11.38-1c3.69-.31,7.43-.49,11.1-1,2.88-.37,6-1.67,6.78-4.79.67-2.67-1.17-4.92-3.43-6.08-2.66-1.37-5.81-1.82-8.72-2.41a89.7,89.7,0,0,0-11-1.59,81.75,81.75,0,0,0-12.42.31c-4.07.32-8.17.52-12.15-.61a1.5,1.5,0,0,0-.79,2.89c6.44,1.83,13,.46,19.55.27a78.56,78.56,0,0,1,19.77,2.45c1.86.42,5.3.91,6.15,3,1.2,2.93-3.76,3.6-5.48,3.75-6.77.59-13.53,1.14-20.3,1.71l-23.26,2c-1.91.16-1.93,3.16,0,3Z"/>
  <path d="M237.46,152.48a123.83,123.83,0,0,0,23.08-10.21A121,121,0,0,0,271,135.54q2.6-1.86,5.1-3.86a40.72,40.72,0,0,0,4.71-4c1.28-1.41,1.43-3.45-.3-4.57a18.33,18.33,0,0,0-5.13-1.76,53.43,53.43,0,0,0-10.67-1.69,56.42,56.42,0,0,0-21.67,3.06,54.37,54.37,0,0,0-20.69,12.91,1.5,1.5,0,0,0,2.12,2.12,52.65,52.65,0,0,1,35.78-15.16,51.77,51.77,0,0,1,9.79.66,48.92,48.92,0,0,1,4.91,1.09c.77.21,1.55.44,2.31.69.36.12.72.23,1.06.36a2,2,0,0,0,.4.16l.21.1c0-.31-.12-.34-.25-.1a22.87,22.87,0,0,0-1.89,1.69c-.76.64-1.53,1.28-2.31,1.91q-2.28,1.83-4.65,3.54c-3.07,2.22-6.25,4.3-9.51,6.22a119.59,119.59,0,0,1-23.67,10.67c-1.83.59-1,3.49.8,2.89Z"/>
  <path d="M201.58,182c-4.59-1.44-9.17-2.93-13.78-4.3-3.9-1.15-8.34-1.83-11.89.66a7.07,7.07,0,0,0-2.08,9.61c2.19,3.66,6.52,4.8,10.53,4.72,1.93,0,1.93-3,0-3-3.09.06-6.75-.63-8.21-3.73-1.32-2.83.74-5.29,3.45-6.06,3.33-.94,7,.55,10.12,1.54l11.06,3.45c1.85.58,2.64-2.32.8-2.89Z"/>
  <path d="M223.31,169.31,210,165.88c-4.4-1.14-8.8-2.45-13.29-3.22-9-1.55-18.07.18-26.93,2a1.51,1.51,0,0,0,0,2.89C185,170.46,198,180,213.37,182.47c1.89.3,2.7-2.59.8-2.9-15.35-2.5-28.42-12-43.65-14.92v2.89c8.64-1.76,17.5-3.5,26.3-1.81,4.31.83,8.56,2.07,12.81,3.16l12.88,3.31c1.87.48,2.67-2.41.8-2.89Z"/>
  <path d="M172.83,126.72c-2.71,9.38-1.48,19.3,1.13,28.55,2.27,8,5.4,17.55,13.74,21.11a10.31,10.31,0,0,0,6.31.91c1.93-.49,3.42-2.14,4.5-3.73,2.17-3.18,2.71-7.2,2.79-11,.09-4.37-.25-8.77-.32-13.14-.08-4.57-.29-9.24-1.75-13.61s-4-8.4-8.1-10.61a12.77,12.77,0,0,0-12.58-.13,1.5,1.5,0,0,0,1.51,2.59,9.66,9.66,0,0,1,9.55.13,14.75,14.75,0,0,1,6.4,7.89,36.14,36.14,0,0,1,1.93,11.81c.11,3.95.21,7.89.33,11.84.11,3.36.11,6.84-1,10a10.43,10.43,0,0,1-2.47,4c-1.55,1.51-3.51,1.13-5.39.44-7.42-2.7-10.19-11.41-12.21-18.25-2.68-9.08-4.13-18.81-1.46-28.07a1.5,1.5,0,0,0-2.89-.8Z"/>
</svg>
