<svg id="Layer_1" data-name="Layer 1" xmlns="http://www.w3.org/2000/svg" viewBox="0 0 300 161.45"><defs><style>.cls-1,.cls-2{fill:none;stroke:#5dfdcb;stroke-miterlimit:10;stroke-width:3px;}.cls-2{stroke-linecap:round;}</style></defs><title>hand_wizard</title><path class="cls-1" d="M215.1,106.73c-11.74-.82-15.08-4-24.66-.06-5.15,2.11-23.69,8.81-29.13,10a118.25,118.25,0,0,0-41.95,17.29,9,9,0,0,1-6.45,1.09c-6.53-1.85-4.75-9.62,1.06-15.64,9.28-8.85,22.14-12.63,29.24-17.31l.07,0a10.6,10.6,0,0,0,4.78-8.21c.51-9-2-15.46-5-21.55a65.41,65.41,0,0,0-7.6-9.86,47.65,47.65,0,0,0-10.13-8.21,6.4,6.4,0,0,0-4.13-1.93l-12.49-1A15.61,15.61,0,0,0,101,52.67L89.75,57.83A9.46,9.46,0,0,1,81,57.48c-2.68-1.6-3.61-3.78-3-6.46a7.81,7.81,0,0,1,4.75-5.49l14.8-6.07a22,22,0,0,1,7.48-2l24-1.37c.1,0,.1-.15,0-.16L109.4,33.16a12.69,12.69,0,0,0-6,.6l-11.47,4a7.49,7.49,0,0,1-8-1.82c-1.83-2-2.08-4-.73-6a6.46,6.46,0,0,1,3-2.39l14.74-6.06a17.14,17.14,0,0,1,8.9-1.13l19,2.65a23.63,23.63,0,0,1,10.7,4.35,386.84,386.84,0,0,0,49.12,36.27,12.47,12.47,0,0,0,4.15,1.62c6,1.14,18.53-.71,21.85-3.17"/><path class="cls-2" d="M140.93,44.94l-9.83-7.8a5.26,5.26,0,0,0-3-1.14l-.75,0"/><path class="cls-1" d="M135,62.13l-7.35,9a69.28,69.28,0,0,0-7.5,11.38l-5.84,11.13a3.61,3.61,0,0,0,.4,4.09c1.19,1.31,3.22,1.54,5.65.63a9.79,9.79,0,0,0,5.12-4.64L130.16,85a5.81,5.81,0,0,1,1.47-2.16L143.1,72.25"/><path class="cls-1" d="M104,51.64,95.55,65.33a4.33,4.33,0,0,0-.18,4.38c1.25,2.18,4.07,2.82,7.63,1.53a11.17,11.17,0,0,0,5.41-4.32c4-5.92,7.28-10.85,10-14.89"/><path class="cls-1" d="M215.08,112.83a.09.09,0,0,0,.08-.08l-.53-55.89a.08.08,0,0,0-.1-.08"/><path class="cls-2" d="M214.63,56.75c-.22-3.24,3.53-4.1,9.17-3.84l1.07,63.49c-5.41.6-10,.52-9.71-3.57"/><path class="cls-1" d="M224.87,116.4l.19,3.2a1.76,1.76,0,0,0,1.61,1.64l26.27,2.27a1.77,1.77,0,0,0,1.91-1.76l.05-77.48a1.76,1.76,0,0,0-2.08-1.73l-27.68,5a1.75,1.75,0,0,0-1.45,1.79l.11,3.58Z"/></svg>