<svg id="Layer_1" data-name="Layer 1" xmlns="http://www.w3.org/2000/svg" viewBox="0 0 300 161.45"><defs><style>.cls-1,.cls-2,.cls-3{fill:none;stroke:#5dfdcb;stroke-width:3px;}.cls-1,.cls-2{stroke-miterlimit:10;}.cls-2,.cls-3{stroke-linecap:round;}.cls-3{stroke-linejoin:round;}</style></defs><title>hand_glock</title><path class="cls-1" d="M215.55,62.22c-18.05-.17-11,1.38-23.84-11-3.35-3.54-6.89-6.23-10-9.3a28.19,28.19,0,0,1-7.87-15c-.92-5.07-1.71-10.85-1.16-15A3.55,3.55,0,0,0,172,9.15c-3.09-3.64-10.1-1.07-11.87,5.4-2.26,6.79.1,19.4,3.11,28a32.48,32.48,0,0,1,.91,12.71,2,2,0,0,1-1.93,1.66l-26.35-1c-1.68-.07-17.54.44-19.22.57L91,58.15c-8.44.54-9.84,10.73-4.61,16.11-10.17.22-10.44,14.12.19,14.82l41.08-.54c-8.08,2.31-8,16.2,6,14.63-6.79,1.64-8.31,9.54-3.28,13.33a8.57,8.57,0,0,0,5.24,1.59l21.12-.28c26.7,3.26,27.26,2.8,47.41-7.75a21.2,21.2,0,0,1,10.94-1.89"/><path class="cls-2" d="M86.42,74.26,115.14,72a112.56,112.56,0,0,1,17.42,0l19.11,1.45c7.39,1.68,7.44,13.1.42,14.87a0,0,0,0,0,0,.09c6.45,1.35,7.64,12.75,0,14.46a0,0,0,0,0,0,0c7.22,2.22,7.33,12.31.13,15"/><line class="cls-2" x1="127.69" y1="88.54" x2="137.93" y2="88.41"/><line class="cls-2" x1="133.72" y1="103.17" x2="139.72" y2="103.09"/><path class="cls-3" d="M164.11,55.2c-2.08,17.64,3.63,28.88,14.11,35.74"/><path class="cls-1" d="M214.57,112.46a.08.08,0,0,0,.07-.08V56.48a.08.08,0,0,0-.1-.08"/><path class="cls-2" d="M214.63,56.38c-.19-3.25,3.57-4.08,9.21-3.76l.48,63.5c-5.41.55-10,.43-9.68-3.66"/><path class="cls-1" d="M224.32,116.12l.17,3.2a1.78,1.78,0,0,0,1.59,1.66l26.25,2.5a1.76,1.76,0,0,0,1.93-1.74L255,44.26a1.75,1.75,0,0,0-2-1.75l-27.74,4.75A1.75,1.75,0,0,0,223.76,49l.08,3.59Z"/></svg>