<svg id="Layer_1" data-name="Layer 1" xmlns="http://www.w3.org/2000/svg" viewBox="0 0 300 300">
  <title>hand_spider-man</title>
  <path d="M27.87,129c31.43-1.25,62.91-.76,94.32.76s62.5,4,93.69,6.82c5.37.49,11.21.84,15.89,3.82a8.38,8.38,0,0,1,3.8,4.9c.84,3.28-.75,6.72-2.16,9.62-5.29,10.91-14.32,19.57-24.69,25.67-11.93,7-25.61,10.51-39.28,12.06-14.88,1.69-30,1.44-44.91.61-15.62-.88-31.19-2.61-46.72-4.55s-31.21-4-46.81-6l-11.36-1.48c-1.91-.24-1.89,2.76,0,3q24.18,3.15,48.36,6.28c15.85,2,31.72,4,47.67,5.2,15.56,1.17,31.28,1.74,46.87.62,14.39-1,28.86-3.74,41.94-10,11.08-5.33,21.11-13.28,28-23.58a52.6,52.6,0,0,0,4.37-8c1.37-3.13,2.49-6.48,1.74-9.91-1.14-5.18-6.1-8-10.8-9.4-6.19-1.85-12.9-1.91-19.29-2.47q-12.12-1.08-24.27-2.06c-16-1.29-32.05-2.45-48.09-3.37-32.06-1.84-64.2-2.74-96.3-1.89q-6,.15-11.92.39c-1.92.08-1.93,3.08,0,3Z"/>
  <path d="M195.6,133c4.51-8.94,6.77-19.69,14.74-26.41a17.05,17.05,0,0,1,5.63-3.21c.52-.17,1.13-.44,1.6-.09a2.71,2.71,0,0,1,.63,1.24,20.25,20.25,0,0,1,.76,3.07,23.45,23.45,0,0,1-1.33,12.15A22.69,22.69,0,0,1,209,130.66c-1.6,1.06-.1,3.66,1.52,2.59A26.59,26.59,0,0,0,222,108.1c-.28-2.19-.67-5.08-2.22-6.77-2-2.17-5-.83-7.26.26-4.65,2.3-8.23,6.43-10.84,10.82-3.6,6-5.56,12.86-8.71,19.1-.87,1.72,1.72,3.24,2.59,1.52Z"/>
  <path d="M200.65,186.15a25.78,25.78,0,0,0,8.14,5.44c3.22,1.53,6.45,3.06,9.64,4.67s6.49,3.37,9.69,5.15q2.3,1.28,4.56,2.6a20.07,20.07,0,0,1,4,2.64c2.45,2.39.27,6-1.95,7.73-2.67,2.06-5.88,2.05-9,1.24a42.36,42.36,0,0,1-17-9.05c-5.16-4.5-9-10.72-15.61-13.24-1.8-.68-2.59,2.22-.79,2.9,6.18,2.34,9.88,8.74,14.75,12.87a44.55,44.55,0,0,0,18.82,9.64,12.72,12.72,0,0,0,9.82-1.37,10.79,10.79,0,0,0,5.1-7.84c.29-3.54-2.44-5.66-5.18-7.27q-5.24-3.09-10.61-5.95-5.9-3.13-11.93-6c-3.64-1.72-7.53-3.27-10.32-6.28-1.32-1.42-3.43.7-2.12,2.12Z"/>
  <path d="M219.6,139.72c7.49-3.29,18-6.68,24.75.07.49.49,1.65,1.55,1.69,2.29s-1.33,1.67-1.88,2.09a17.82,17.82,0,0,1-5.85,2.7,42.51,42.51,0,0,1-14.94,1.29c-1.81-.14-1.86,2.39-.4,3,3.46,1.33,7.17,1.1,10.76,1.79,3,.57,6.44,2,6.75,5.5s-3.3,3.89-5.82,3.78A93.8,93.8,0,0,1,223,160.51l-.8,2.89c4.06.61,8.72,1.2,11.81,4.19,2.76,2.66,3.54,6.67.67,9.56-3.1,3.12-8,3-12,2.18a29.55,29.55,0,0,1-11.55-5.23c-1.56-1.15-3.06,1.46-1.52,2.59a31.94,31.94,0,0,0,10.82,5.19c4,1,8.47,1.52,12.37,0,3.11-1.23,5.89-3.86,6.56-7.24a10.27,10.27,0,0,0-3.68-9.52c-3.52-3.08-8.23-3.9-12.71-4.57-1.88-.28-2.72,2.56-.8,2.89,2.6.45,5.21.87,7.82,1.24a33.36,33.36,0,0,0,5.89.55c3.67-.13,7.38-2,7.57-6.13s-2.86-7.06-6.41-8.37c-4.29-1.58-9-.83-13.3-2.47l-.4,2.94a46.84,46.84,0,0,0,14.36-1c3.8-.89,8-2.53,10.5-5.73s-1.7-7.1-4.32-8.76A19,19,0,0,0,233,132.91c-5.23.23-10.14,2.14-14.88,4.21-1.76.78-.24,3.36,1.52,2.6Z"/>
</svg>
