<svg id="Layer_1" data-name="Layer 1" xmlns="http://www.w3.org/2000/svg" viewBox="0 0 300 300">
  <title>hand_wizard</title>
  <path d="M27.87,129c31.43-1.25,62.91-.76,94.32.76s62.5,4,93.69,6.82c5.37.49,11.21.84,15.89,3.82a8.38,8.38,0,0,1,3.8,4.9c.84,3.28-.75,6.72-2.16,9.62-5.29,10.91-14.32,19.57-24.69,25.67-11.93,7-25.61,10.51-39.28,12.06-14.88,1.69-30,1.44-44.91.61-15.62-.88-31.19-2.61-46.72-4.55s-31.21-4-46.81-6l-11.36-1.48c-1.91-.24-1.89,2.76,0,3q24.18,3.15,48.36,6.28c15.85,2,31.72,4,47.67,5.2,15.56,1.17,31.28,1.74,46.87.62,14.39-1,28.86-3.74,41.94-10,11.08-5.33,21.11-13.28,28-23.58a52.6,52.6,0,0,0,4.37-8c1.37-3.13,2.49-6.48,1.74-9.91-1.14-5.18-6.1-8-10.8-9.4-6.19-1.85-12.9-1.91-19.29-2.47q-12.12-1.08-24.27-2.06c-16-1.29-32.05-2.45-48.09-3.37-32.06-1.84-64.2-2.74-96.3-1.89q-6,.15-11.92.39c-1.92.08-1.93,3.08,0,3Z"/>
  <path d="M180.15,128.69c-.42-8.79-.87-17.77,1.21-26.41a16.24,16.24,0,0,1,1.92-5.13A7.12,7.12,0,0,1,188,94.28a34.56,34.56,0,0,1,6.57-.77c1.89-.06,4.31-.27,6,.75s2.71,3.75,3.67,5.51l3.71,6.83,2.05-2c-3.43-2.18-7.16-4.42-11.38-4.29a9.4,9.4,0,0,0-8.39,5.35c-1.46,3.09-1.64,6.63-1.49,10,.2,4.68.69,9.36,1.32,14a1.51,1.51,0,0,0,1.84,1,1.54,1.54,0,0,0,1-1.85q-.81-6-1.16-12.12a23.38,23.38,0,0,1,.69-8.66,6.53,6.53,0,0,1,6.14-4.75c3.67-.11,6.89,2,9.87,3.88,1.31.83,2.74-.79,2.05-2l-3.71-6.83c-1-1.9-1.95-4.13-3.53-5.65a8.81,8.81,0,0,0-5.92-2.09,41,41,0,0,0-7.51.4,15.53,15.53,0,0,0-6.52,2,10.26,10.26,0,0,0-3.65,4.74c-1.81,4.34-2.37,9.33-2.67,14a149,149,0,0,0,.16,17c.09,1.92,3.09,1.93,3,0Z"/>
  <path d="M227.54,132.25c-3-2.53-2.85-7.18-2.88-10.75A46.07,46.07,0,0,1,226,108.68c.9-3.19,2.66-6.61,6.06-7.64,3.67-1.12,7.67.83,10.3,3.35,3.5,3.34,5.57,7.86,8.28,11.8a1.5,1.5,0,0,0,2.59-1.51,9.9,9.9,0,0,0-3.95-3.8,27.5,27.5,0,0,0-5.59-2.58c-4.12-1.3-8.13,0-10,4s-1.59,8.81-1.37,13.23l.75,14.88c.1,1.92,3.1,1.93,3,0l-.62-12.2c-.19-3.93-.72-8.09.11-12a8.5,8.5,0,0,1,2-4.41,4.73,4.73,0,0,1,4.69-.85,22.47,22.47,0,0,1,4.83,2.09,8,8,0,0,1,3.53,3.09l2.59-1.51c-2.79-4.06-5-8.64-8.48-12.15-3.1-3.1-7.58-5.32-12.05-4.68-9.76,1.38-10.87,14-11,21.74-.1,4.84-.32,11.33,3.75,14.78,1.46,1.25,3.59-.86,2.12-2.12Z"/>
  <path d="M238.18,141.78a42,42,0,0,1,3.56-10.35c.69-1.37,1.46-3.52,3-4a8.58,8.58,0,0,1,4.4.33A28.47,28.47,0,0,1,265,138l1.46-2.51a22.84,22.84,0,0,1-5.25-2.8c-1.45-1.05-2.63-2.39-4.05-3.47-3-2.28-7.18-1.3-10.54-.33a11.67,11.67,0,0,0-7.69,6.24c-1.41,3.1-1.65,6.56-1.79,9.91-.08,1.93,2.92,1.93,3,0,.12-2.86.24-5.91,1.46-8.56,1.35-2.93,3.95-4.3,7-5a18.51,18.51,0,0,1,4.72-.69c1.63.07,2.68,1.34,3.79,2.37a26.07,26.07,0,0,0,8.58,5.22c1.57.58,2.26-1.48,1.45-2.51a30.85,30.85,0,0,0-18.61-11.33,9,9,0,0,0-5.16.26c-1.8.79-2.74,2.5-3.63,4.15A44.5,44.5,0,0,0,235.29,141c-.39,1.89,2.5,2.69,2.89.8Z"/>
  <path d="M234.87,150.3c-2.21,3,1,7,4.31,6.85,4.39-.15,6.31-4.49,8.11-7.78a9.85,9.85,0,0,1,.75-1.25c.35-.49.36-.59.8-.28a6.76,6.76,0,0,1,1.43,2.38c.79,1.64,1.36,3.38,2.22,5,1.93,3.65,5.21,5.24,9.22,5.59s9,.46,11.86-2.81l-1.46.39c-.3-.77-.52-.95-.66-.53l-.43.6a10.8,10.8,0,0,1-.81,1,15.56,15.56,0,0,1-2,1.82,23.43,23.43,0,0,1-4.47,2.59,61,61,0,0,1-10.93,3.64,13.15,13.15,0,0,1-11.21-1.87c-3-2.1-5.41-5.11-7.64-8a1.55,1.55,0,0,0-2.05-.54,1.51,1.51,0,0,0-.54,2.05c4.19,5.45,9.22,11.51,16.63,11.91,4.07.22,8.15-1.28,12-2.54a35.13,35.13,0,0,0,9.47-4.42,18.36,18.36,0,0,0,3.6-3.33c.93-1.16,2.06-2.74,1.2-4.27a2,2,0,0,0-1.73-1c-.95,0-1.43,1-2.16,1.43a8.88,8.88,0,0,1-4.47,1c-3.32.12-7.56.17-9.83-2.67-2-2.5-2.49-5.89-4.31-8.51-1.11-1.59-2.86-2.91-4.79-1.71-1.7,1.07-2.5,3.36-3.4,5s-2.07,3.65-4.06,4c-1.25.24-3-1-2-2.3,1.13-1.56-1.47-3.06-2.59-1.51Z"/>
  <path d="M218.38,169.55a22.54,22.54,0,0,0,3.25,10.13,13,13,0,0,0,8.72,5.54,30.74,30.74,0,0,0,11.59-.29c3.67-.83,6.93-3.37,7.24-7.32l-2.25,1.3c4.13,2.63.83,9.28-.54,12.56a69.14,69.14,0,0,1-3.27,6.84,6.63,6.63,0,0,1-4.86,3.76c-3.8.69-8.15-.5-11.56-2.15a26.92,26.92,0,0,1-9.07-7.2,24.57,24.57,0,0,1-5.22-11.78c-.3-1.9-3.19-1.09-2.9.8a28.55,28.55,0,0,0,16.32,21.07c4.16,1.88,9.26,3.15,13.79,2a9.14,9.14,0,0,0,5.79-4.5,61.25,61.25,0,0,0,3.7-7.65c2.09-5,5.19-12.65-.67-16.37a1.52,1.52,0,0,0-2.26,1.29c-.25,3.18-3.93,4.37-6.58,4.69a28.09,28.09,0,0,1-9.24-.12c-6-1.36-8.33-7-9-12.63-.22-1.9-3.22-1.92-3,0Z"/>
</svg>
