<svg id="Layer_1" data-name="Layer 1" xmlns="http://www.w3.org/2000/svg" viewBox="0 0 300 300">
  <title>hand_glock</title>
  <path d="M27.87,129c31.43-1.25,62.91-.76,94.32.76s62.5,4,93.69,6.82c5.37.49,11.21.84,15.89,3.82a8.38,8.38,0,0,1,3.8,4.9c.84,3.28-.75,6.72-2.16,9.62-5.29,10.91-14.32,19.57-24.69,25.67-11.93,7-25.61,10.51-39.28,12.06-14.88,1.69-30,1.44-44.91.61-15.62-.88-31.19-2.61-46.72-4.55s-31.21-4-46.81-6l-11.36-1.48c-1.91-.24-1.89,2.76,0,3q24.18,3.15,48.36,6.28c15.85,2,31.72,4,47.67,5.2,15.56,1.17,31.28,1.74,46.87.62,14.39-1,28.86-3.74,41.94-10,11.08-5.33,21.11-13.28,28-23.58a52.6,52.6,0,0,0,4.37-8c1.37-3.13,2.49-6.48,1.74-9.91-1.14-5.18-6.1-8-10.8-9.4-6.19-1.85-12.9-1.91-19.29-2.47q-12.12-1.08-24.27-2.06c-16-1.29-32.05-2.45-48.09-3.37-32.06-1.84-64.2-2.74-96.3-1.89q-6,.15-11.92.39c-1.92.08-1.93,3.08,0,3Z"/>
  <path d="M183.61,134.41a96.46,96.46,0,0,1,24.31-26.73c2.2-1.64,4.72-3.53,7.59-3.58s4.81,2,4.93,4.89a16.41,16.41,0,0,1-6.86,14.06c-4.78,3.27-10.53,4.79-15.27,8.13-1.57,1.11-.07,3.71,1.51,2.59,4.75-3.34,10.49-4.86,15.27-8.13a19.54,19.54,0,0,0,8.36-15.9c.06-3-.94-6-3.64-7.58s-6.07-1.2-8.85.06c-3,1.37-5.68,3.65-8.23,5.72a98.63,98.63,0,0,0-7.56,6.89A102.62,102.62,0,0,0,181,132.9c-1,1.64,1.58,3.15,2.59,1.51Z"/>
  <path d="M224.82,137.2a149.91,149.91,0,0,1,27.31-3.89q6.83-.33,13.65,0a67.3,67.3,0,0,1,12.43,1.38c3.77.87,7.84,2.3,10.58,5.15,2.16,2.25,3.49,6,.25,8-2.94,1.79-6.92,1.41-10.2,1.36a120.2,120.2,0,0,0-13.95.22c-9.7,1-19.65,4.75-29.4,2.17a1.5,1.5,0,0,0-.79,2.9c9.55,2.53,19.1-.63,28.58-1.88a99.34,99.34,0,0,1,14.84-.42c3.88.07,8.15.37,11.74-1.39a7.13,7.13,0,0,0,3.73-8.91c-1.39-3.91-4.94-6.51-8.6-8.13a41.67,41.67,0,0,0-12.93-3.06,131,131,0,0,0-14.42-.53A154.2,154.2,0,0,0,224,134.3c-1.87.45-1.08,3.34.8,2.9Z"/>
  <path d="M219.12,163.75a29.15,29.15,0,0,1,8-4.17,23.2,23.2,0,0,1,4.4-1.09c1.53-.18,1.93.94,2.5,2.14,1.08,2.31,2.45,5.7.2,7.77-1.59,1.46-4.15,1.65-6.19,1.36-3.65-.51-7-2.2-10.76-2.14-1.93,0-1.94,3,0,3,3.79-.06,7.27,1.78,11,2.17,2.85.3,6.17-.31,8.25-2.44,2.77-2.84,2-6.84.58-10.14-.64-1.48-1.31-3.15-2.7-4.08-1.64-1.12-3.77-.57-5.56-.15a31.37,31.37,0,0,0-11.27,5.18,1.53,1.53,0,0,0-.54,2.05,1.51,1.51,0,0,0,2.05.54Z"/>
  <path d="M214.65,173.58a23.51,23.51,0,0,1,15.76,3.07,21.53,21.53,0,0,1,2.26,1.55c.28.22,1.09.72,1.18,1.08.29,0,.29,0,0,.11a3,3,0,0,1-.43.09c-2.1.43-4.35.5-6.49.74l-6.61.75a7.87,7.87,0,0,1-3,.07,5.19,5.19,0,0,1-1.77-1.11,9.29,9.29,0,0,0-4-2.41c-1.89-.37-2.69,2.52-.8,2.9,1.47.29,2.48,1.51,3.64,2.38a6.47,6.47,0,0,0,4.6,1.31c4.31-.35,8.61-1,12.91-1.44,1.57-.18,3.5-.16,4.55-1.55,1.23-1.64.14-3.53-1.2-4.67a26.07,26.07,0,0,0-9.38-5.06,26.67,26.67,0,0,0-12-.7c-1.9.32-1.1,3.21.8,2.89Z"/>
  <path d="M208.11,181.2a51.35,51.35,0,0,1,14.26,2.56c1.61.54,4.44,1.15,5.4,2.75s-2.15,2.66-3.23,3c-9.13,2.91-18.83.64-27.91-1.27A83.93,83.93,0,0,0,180,186a1.5,1.5,0,0,0,0,3c11.28.09,22,4.44,33.26,4.87a40,40,0,0,0,8-.47,20.65,20.65,0,0,0,7-2.15c1.84-1.07,3.2-3,2.62-5.17-.55-2.06-2.6-3.24-4.43-4a53.15,53.15,0,0,0-18.28-3.86c-1.94-.07-1.93,2.93,0,3Z"/>
</svg>
