<svg id="Layer_1" data-name="Layer 1" xmlns="http://www.w3.org/2000/svg" viewBox="0 0 300 300">
  <title>hand_batman</title>
  <path d="M27.87,129c31.43-1.25,62.91-.76,94.32.76s62.5,4,93.69,6.82c5.37.49,11.21.84,15.89,3.82a8.38,8.38,0,0,1,3.8,4.9c.84,3.28-.75,6.72-2.16,9.62-5.29,10.91-14.32,19.57-24.69,25.67-11.93,7-25.61,10.51-39.28,12.06-14.88,1.69-30,1.44-44.91.61-15.62-.88-31.19-2.61-46.72-4.55s-31.21-4-46.81-6l-11.36-1.48c-1.91-.24-1.89,2.76,0,3q24.18,3.15,48.36,6.28c15.85,2,31.72,4,47.67,5.2,15.56,1.17,31.28,1.74,46.87.62,14.39-1,28.86-3.74,41.94-10,11.08-5.33,21.11-13.28,28-23.58a52.6,52.6,0,0,0,4.37-8c1.37-3.13,2.49-6.48,1.74-9.91-1.14-5.18-6.1-8-10.8-9.4-6.19-1.85-12.9-1.91-19.29-2.47q-12.12-1.08-24.27-2.06c-16-1.29-32.05-2.45-48.09-3.37-32.06-1.84-64.2-2.74-96.3-1.89q-6,.15-11.92.39c-1.92.08-1.93,3.08,0,3Z"/>
  <path d="M225.38,137.86a93.46,93.46,0,0,1,18.74-5.1c6.17-1,12.73-1.34,18.73.74,2.49.86,5.08,2.32,6.24,4.81a4.84,4.84,0,0,1-1.69,6.37c-2.17,1.39-4.91,1.84-7.39,2.32a86.16,86.16,0,0,1-10,1.32c-7.32.57-14.67.44-22,.3-1.93,0-1.93,3,0,3,7.33.14,14.68.27,22-.3a95.49,95.49,0,0,0,10.78-1.42c2.85-.56,6-1.13,8.4-2.82a7.57,7.57,0,0,0,3.4-7.17,10.27,10.27,0,0,0-4.67-7.24c-5.51-3.79-13.18-4-19.6-3.45A90,90,0,0,0,224.58,135c-1.78.69-1,3.59.8,2.89Z"/>
  <path d="M224.47,154.14c3.68.22,7.53.4,10.95,1.93a12.8,12.8,0,0,1,3.81,2.57,8.7,8.7,0,0,1,1.39,1.75c.26.44,1,1.53.79,2.07s-1.13.83-1.57,1a18,18,0,0,1-2.59.89,25.76,25.76,0,0,1-5.38.84,58.09,58.09,0,0,1-11.1-.74,1.57,1.57,0,0,0-1.85,1.05,1.52,1.52,0,0,0,1.05,1.85c7,1,14.36,1.7,21-1.14,1.31-.56,2.7-1.28,3.21-2.7s-.14-3.18-.91-4.51a14.23,14.23,0,0,0-6.85-5.75c-3.77-1.62-7.92-1.89-12-2.13-1.93-.11-1.92,2.89,0,3Z"/>
  <path d="M223.46,170.31c3.32,0,6.89,0,9.87,1.7a6.93,6.93,0,0,1,2.89,2.81c.37.78,0,.76-.74.93a24.4,24.4,0,0,1-2.68.4c-7.34.75-14.62-.89-21.73-2.51-1.88-.43-2.68,2.46-.79,2.89a120.06,120.06,0,0,0,13.7,2.53,45,45,0,0,0,7.16.22,19.5,19.5,0,0,0,6.27-1c4.37-1.84.65-6.69-1.77-8.37-3.55-2.46-8-2.58-12.18-2.61a1.5,1.5,0,0,0,0,3Z"/>
  <path d="M210.66,180.83a214.92,214.92,0,0,1,22.25,1.6q5.34.67,10.64,1.62c1.59.29,3.2.54,4.77.94,1.29.34,2.84.87,3.32,2.26,1.07,3.1-2.54,5.26-4.92,6.07a49.69,49.69,0,0,1-9.87,2.16,104,104,0,0,1-21.6.06c-3.88-.33-7.76-.74-11.63-1.19-3.54-.41-7.12-1-10.12-3-1.6-1.1-3.1,1.5-1.51,2.59a22.14,22.14,0,0,0,9.79,3.23c3.84.52,7.72.9,11.58,1.25a108.36,108.36,0,0,0,23.95,0,47.92,47.92,0,0,0,11-2.48c3.07-1.19,5.89-3.33,6.41-6.79s-1.75-5.85-4.86-6.85c-3.65-1.16-7.69-1.56-11.47-2.12a217.91,217.91,0,0,0-27.7-2.35c-1.93,0-1.93,3,0,3Z"/>
  <path d="M180.3,147.84A87.12,87.12,0,0,0,242.45,173a1.52,1.52,0,0,0,1.06-2.56,160.73,160.73,0,0,0-37.86-25.94c-3.94-1.94-8-3.7-12-5.31-1.8-.71-2.57,2.19-.8,2.89a156.82,156.82,0,0,1,38.84,22.22q5,3.93,9.74,8.26l1.06-2.56a84.7,84.7,0,0,1-48.74-14.89,81.62,81.62,0,0,1-11.29-9.37,1.5,1.5,0,0,0-2.12,2.13Z"/>
</svg>
