<svg id="Layer_1" data-name="Layer 1" xmlns="http://www.w3.org/2000/svg" viewBox="0 0 300 300">
  <title>hand_spock</title>
  <path d="M27.87,129c31.43-1.25,62.91-.76,94.32.76s62.5,4,93.69,6.82c5.37.49,11.21.84,15.89,3.82a8.38,8.38,0,0,1,3.8,4.9c.84,3.28-.75,6.72-2.16,9.62-5.29,10.91-14.32,19.57-24.69,25.67-11.93,7-25.61,10.51-39.28,12.06-14.88,1.69-30,1.44-44.91.61-15.62-.88-31.19-2.61-46.72-4.55s-31.21-4-46.81-6l-11.36-1.48c-1.91-.24-1.89,2.76,0,3q24.18,3.15,48.36,6.28c15.85,2,31.72,4,47.67,5.2,15.56,1.17,31.28,1.74,46.87.62,14.39-1,28.86-3.74,41.94-10,11.08-5.33,21.11-13.28,28-23.58a52.6,52.6,0,0,0,4.37-8c1.37-3.13,2.49-6.48,1.74-9.91-1.14-5.18-6.1-8-10.8-9.4-6.19-1.85-12.9-1.91-19.29-2.47q-12.12-1.08-24.27-2.06c-16-1.29-32.05-2.45-48.09-3.37-32.06-1.84-64.2-2.74-96.3-1.89q-6,.15-11.92.39c-1.92.08-1.93,3.08,0,3Z"/>
  <path d="M196.4,132.8c11.79-10.59,26.12-23.11,43.26-20.56l-.36-2.75c-2.9,1.56-5.13,4-7.36,6.33a50,50,0,0,1-7.48,6.54c-5.53,3.92-11.68,6.87-17.78,9.78-1.74.83-.22,3.42,1.52,2.59,6.1-2.91,12.24-5.86,17.78-9.78a52.77,52.77,0,0,0,7.51-6.41c2.27-2.36,4.4-4.88,7.32-6.46,1.06-.56.95-2.54-.36-2.74C222,106.6,207,119.22,194.28,130.68c-1.44,1.29.69,3.4,2.12,2.12Z"/>
  <path d="M231.19,138.05c4.08-8.5,9-18.12,18.57-21.36a16.58,16.58,0,0,1,6.84-.9,10.86,10.86,0,0,1,3,.63c1.31.5,1.39,1.18.6,2.31a43.46,43.46,0,0,1-5.08,5.6q-2.53,2.49-5.31,4.72a69.57,69.57,0,0,1-14.22,8.78c-1.75.81-.22,3.4,1.52,2.59a73.24,73.24,0,0,0,14.5-9,69.84,69.84,0,0,0,6.22-5.57c1.86-1.88,4.17-4,5.4-6.34,3.23-6.21-6.7-7.12-10.46-6.6A24.28,24.28,0,0,0,239,120.15c-4.59,4.65-7.59,10.55-10.39,16.38-.83,1.74,1.76,3.26,2.59,1.52Z"/>
  <path d="M238.81,141.78q7.66-4.8,15.32-9.62c3.9-2.47,8.09-5.3,10.16-9.6.24-.49.42-1,.64-1.51a3.76,3.76,0,0,0,.38-.71l.08-.09c.17-.18.07-.17-.29,0,0,.26.54,1.15.63,1.43a6.9,6.9,0,0,1,.26,1.86,10.55,10.55,0,0,1-2.08,6.06c-3,4.26-8.41,6.14-12.93,8.26a77.28,77.28,0,0,0-8.18,4.49c-1.38.85-2.74,1.74-4.08,2.63-1.07.72-2.78,2.37-4.17,2.15-1.89-.3-2.71,2.59-.8,2.89,3.23.51,5.88-2.07,8.41-3.72a88.56,88.56,0,0,1,8.59-5c5.22-2.62,11.32-4.52,15.07-9.28A14.27,14.27,0,0,0,268.9,125c.29-2.3-.1-5.86-2.19-7.33a2.55,2.55,0,0,0-3.15.2c-1.05.89-1.35,2.19-1.94,3.37a17.2,17.2,0,0,1-5.35,5.9c-2.76,2-5.76,3.79-8.67,5.61l-10.3,6.47c-1.63,1-.13,3.62,1.51,2.59Z"/>
  <path d="M237.35,150.15a75.73,75.73,0,0,1,33.34,34.31l1.69-2.21c-15.47-5.32-26.48-18.39-36.66-30.54-1.09-1.29-3.35.43-2.36,1.82,4.35,6.07,10.32,10.57,16.57,14.54,3.2,2,6.57,3.84,9.64,6.06a23.09,23.09,0,0,1,7.15,8.79c.8,1.63,1.48,3.31,2.13,5,.57,1.48,1.61,3.39,1.32,5s-2.21,1.79-3.57,1.76a35.31,35.31,0,0,1-5.42-.64C254,192.8,246.83,190,241.36,185c-5.86-5.35-9.64-13-9.23-21,.09-1.93-2.91-1.93-3,0-.4,7.78,2.84,15.34,8,21.05,5.47,6,13.12,9.75,21,11.52a57.35,57.35,0,0,0,6,1,13.8,13.8,0,0,0,5.32-.1,5,5,0,0,0,3.62-3.49,9.19,9.19,0,0,0-.78-5.43,49.19,49.19,0,0,0-5.23-11c-2.46-3.53-5.82-6-9.45-8.24-7.87-4.81-16.15-9.58-21.63-17.23l-2.35,1.82c10.56,12.61,22,25.8,38,31.32,1.34.46,2.21-1.12,1.69-2.21a78.43,78.43,0,0,0-34.41-35.38c-1.71-.88-3.23,1.7-1.52,2.59Z"/>
</svg>
