<svg id="Layer_1" data-name="Layer 1" xmlns="http://www.w3.org/2000/svg" viewBox="0 0 300 300">
  <title>hand_default</title>
  <g>
    <path d="M27.87,129c31.43-1.25,62.91-.76,94.32.76s62.5,4,93.69,6.82c5.37.49,11.21.84,15.89,3.82a8.38,8.38,0,0,1,3.8,4.9c.84,3.28-.75,6.72-2.16,9.62-5.29,10.91-14.32,19.57-24.69,25.67-11.93,7-25.61,10.51-39.28,12.06-14.88,1.69-30,1.44-44.91.61-15.62-.88-31.19-2.61-46.72-4.55s-31.21-4-46.81-6l-11.36-1.48c-1.91-.24-1.89,2.76,0,3q24.18,3.15,48.36,6.28c15.85,2,31.72,4,47.67,5.2,15.56,1.17,31.28,1.74,46.87.62,14.39-1,28.86-3.74,41.94-10,11.08-5.33,21.11-13.28,28-23.58a52.6,52.6,0,0,0,4.37-8c1.37-3.13,2.49-6.48,1.74-9.91-1.14-5.18-6.1-8-10.8-9.4-6.19-1.85-12.9-1.91-19.29-2.47q-12.12-1.08-24.27-2.06c-16-1.29-32.05-2.45-48.09-3.37-32.06-1.84-64.2-2.74-96.3-1.89q-6,.15-11.92.39c-1.92.08-1.93,3.08,0,3Z"/>
    <path d="M173.24,129.85A89.08,89.08,0,0,1,206,101.38,85,85,0,0,1,216.15,97a40.45,40.45,0,0,1,5.32-1.67,2.15,2.15,0,0,1,2.34.53,7.74,7.74,0,0,1,1.1,2.59,15,15,0,0,1-.8,10.24c-1.64,3.56-4.66,6-7.94,8-4.17,2.53-8.52,4.8-12.82,7.12-4.46,2.4-9,4.73-13.56,6.88-1.74.82-.22,3.41,1.52,2.59,8.79-4.12,17.46-8.74,25.83-13.68,3.56-2.1,7-4.66,9-8.34a18.1,18.1,0,0,0,2.08-11.31,13.38,13.38,0,0,0-1.86-5.57,4.88,4.88,0,0,0-5.11-2,34.28,34.28,0,0,0-5.93,1.78c-1.92.68-3.8,1.44-5.67,2.24a92.06,92.06,0,0,0-39,32c-1.11,1.59,1.49,3.09,2.59,1.52Z"/>
    <path d="M165.82,195.07a108.16,108.16,0,0,0,44.45,12.51,105.72,105.72,0,0,0,13.32-.06,1.52,1.52,0,0,0,1.06-2.56c-4.47-4.62-10.86-6.43-16.85-8.17-7.21-2.1-14.52-3.87-21.82-5.63-1.87-.46-2.67,2.44-.79,2.89,7,1.69,14,3.38,20.87,5.36,5.77,1.65,12.15,3.22,16.47,7.67l1.06-2.56a105.49,105.49,0,0,1-44.5-6.66,103,103,0,0,1-11.75-5.38c-1.71-.9-3.23,1.68-1.52,2.59Z"/>
    <path d="M204.13,188.28q28.34,2.31,56.74,3.84l7.19.37,3.47.17a5.16,5.16,0,0,0,2.89-.31c3.5-2-.48-6.43-2.38-7.89a23.41,23.41,0,0,0-9.38-3.82c-4.4-1-8.86-1.7-13.28-2.54l-31.48-5.93c-1.88-.35-2.69,2.54-.8,2.9L243,179.94l12.93,2.44a66.34,66.34,0,0,1,10.35,2.37,14.32,14.32,0,0,1,4.12,2.19,9.33,9.33,0,0,1,1.45,1.43,6.5,6.5,0,0,1,.68,1c.05.1.11.29.17.38s-.09.36.13.15-1.15-.2-1.27-.21l-1.49-.07-3.47-.17-6.45-.34q-13.14-.72-26.27-1.59-14.86-1-29.72-2.21c-1.93-.15-1.92,2.85,0,3Z"/>
    <path d="M227.28,170.62l22.77-1.91,11.38-1c3.69-.31,7.43-.49,11.1-1,2.88-.37,6-1.67,6.78-4.79.67-2.67-1.17-4.92-3.43-6.08-2.66-1.37-5.81-1.82-8.72-2.41a89.7,89.7,0,0,0-11-1.59,81.75,81.75,0,0,0-12.42.31c-4.07.32-8.17.52-12.15-.61a1.5,1.5,0,0,0-.79,2.89c6.44,1.83,13,.46,19.55.27a78.56,78.56,0,0,1,19.77,2.45c1.86.42,5.3.91,6.15,3,1.2,2.93-3.76,3.6-5.48,3.75-6.77.59-13.53,1.14-20.3,1.71l-23.26,2c-1.91.16-1.93,3.16,0,3Z"/>
    <path d="M237.46,152.48a123.83,123.83,0,0,0,23.08-10.21A121,121,0,0,0,271,135.54q2.6-1.86,5.1-3.86a40.72,40.72,0,0,0,4.71-4c1.28-1.41,1.43-3.45-.3-4.57a18.33,18.33,0,0,0-5.13-1.76,53.43,53.43,0,0,0-10.67-1.69,56.42,56.42,0,0,0-21.67,3.06,54.37,54.37,0,0,0-20.69,12.91,1.5,1.5,0,0,0,2.12,2.12,52.65,52.65,0,0,1,35.78-15.16,51.77,51.77,0,0,1,9.79.66,48.92,48.92,0,0,1,4.91,1.09c.77.21,1.55.44,2.31.69.36.12.72.23,1.06.36a2,2,0,0,0,.4.16l.21.1c0-.31-.12-.34-.25-.1a22.87,22.87,0,0,0-1.89,1.69c-.76.64-1.53,1.28-2.31,1.91q-2.28,1.83-4.65,3.54c-3.07,2.22-6.25,4.3-9.51,6.22a119.59,119.59,0,0,1-23.67,10.67c-1.83.59-1,3.49.8,2.89Z"/>
  </g>
</svg>
