<svg id="Layer_1" data-name="Layer 1" xmlns="http://www.w3.org/2000/svg" viewBox="0 0 250.41 250.41"><defs><style>.cls-1{fill:none;stroke:#757ff5;stroke-miterlimit:10;stroke-width:2px;}.cls-2{font-size:58.61px;fill:#757ff5;font-family:Helvetica-Light, Helvetica;font-weight:300;letter-spacing:0.14em;}.cls-3{font-size:77px;letter-spacing:0.14em;}</style></defs><title>bet</title><circle class="cls-1" cx="125.21" cy="125.21" r="124.21"/><path class="cls-1" d="M273.47,131.19H251.61a3.41,3.41,0,0,0-3.41,3.4v31.74a3.41,3.41,0,0,0,3.41,3.4h21.86" transform="translate(-25.59 -25.49)"/><path class="cls-1" d="M28.81,131.43H50.67a3.4,3.4,0,0,1,3.41,3.4v31.74A3.41,3.41,0,0,1,50.67,170H28.81" transform="translate(-25.59 -25.49)"/><path class="cls-1" d="M229.17,247l-10.89-19a3.41,3.41,0,0,0-4.65-1.26l-27.52,15.8a3.4,3.4,0,0,0-1.26,4.65l10.88,19" transform="translate(-25.59 -25.49)"/><path class="cls-1" d="M73.28,247l10.88-19a3.42,3.42,0,0,1,4.65-1.26l27.53,15.8a3.41,3.41,0,0,1,1.26,4.65l-10.89,19" transform="translate(-25.59 -25.49)"/><path class="cls-1" d="M73.22,54.62l10.88,19a3.42,3.42,0,0,0,4.65,1.26l27.53-15.8a3.4,3.4,0,0,0,1.25-4.65l-10.88-19" transform="translate(-25.59 -25.49)"/><path class="cls-1" d="M228.72,54.62l-10.88,19a3.42,3.42,0,0,1-4.65,1.26l-27.53-15.8a3.42,3.42,0,0,1-1.26-4.65l10.89-19" transform="translate(-25.59 -25.49)"/><text class="cls-2" transform="translate(87.71 145.09)">2<tspan class="cls-3" x="40.56" y="0">x</tspan></text><circle class="cls-1" cx="126.21" cy="125.21" r="80.08"/></svg>