<svg xmlns="http://www.w3.org/2000/svg" viewBox="0 0 996.76 967.32"><defs><style>.cls-1,.cls-2,.cls-3{fill:none;stroke-miterlimit:10;}.cls-1,.cls-2{stroke:#5dfdcb;stroke-width:8px;}.cls-2{stroke-linecap:round;}.cls-3{stroke:#7186f5;stroke-width:15px;}</style></defs><title>Artboard 3</title><g id="Layer_3" data-name="Layer 3"><path class="cls-1" d="M286.35,517.78a49,49,0,0,0,12.83,10c2.35,1.25,4.56,1.55,6.21.77,11-5.25,27.67-3.74,47,1,6.16,1.51,13,6.37,18.62,13.41,8.69,10.85,18.68,25.9,29.2,42.63a12.88,12.88,0,0,0,4.73,4.54,63.35,63.35,0,0,1,13.61,10.27,29.72,29.72,0,0,1,7.29,10.81c4.22,11.19,3.24,19.85,0,27.4a.22.22,0,0,0,0,.15c9.36,14.71,8.4,36.66-7,32.44-.07,0-.1.06,0,.16,8.83,14.79.62,32.44-13.54,23.45-.08,0-.13,0-.1.11,4.05,10.88-2.58,19.35-12.69,15.49h0c-16.11-7.89-28-14.7-36-20.51a58.17,58.17,0,0,1-6.15-5.19,803.43,803.43,0,0,1-56.14-59.81,31.52,31.52,0,0,1-5.44-9.21c-3.91-10.54-8.22-18.87-13.3-22.93a.25.25,0,0,1-.08-.19l10.82-74.79C286.21,517.7,286.29,517.71,286.35,517.78Z"/><path class="cls-1" d="M286.22,517.64c.89-4.14-4.07-9.21-11.82-14.73l-12.94,84.46c7.27,6.44,13.56,11.12,13.9,5.3"/><path class="cls-1" d="M261.46,587.37l-.85,4.1c-.23,1.12-1.29,1.35-2.49.55l-36.27-24.31a5.24,5.24,0,0,1-2.29-4.35l14-104.47c.19-1.49,1.7-1.57,3.14-.18l36.89,35.57a5,5,0,0,1,1.65,3.92l-.8,4.71Z"/><path class="cls-2" d="M402.14,588a94.32,94.32,0,0,0,3.75,38.28,10.31,10.31,0,0,1,.55,5.66c-1.26,4.36-6.5,3.56-13.1-2.47a48.66,48.66,0,0,1-13.06-20.92c-2.08-6.79-3.16-12.17-2.88-15.59a3.46,3.46,0,0,0-1.25-2.58,75.3,75.3,0,0,0-8.87-6.53c-.75-.46-1.38-.26-1.53.42-5.39,24-19.2,30.33-40.4,21.05"/><path class="cls-2" d="M425.81,638.66c-6.69-1.11-13.19-3.13-19.21-7.54"/><path class="cls-2" d="M383.71,616.83c-12.82-7.19-19.46,2.13-11.34,18.72-11.93-6.47-17.71,3.14-9.46,18.46-8-2-12.59,6.38-5.89,17.5a70.06,70.06,0,0,0,10.06,13"/><line class="cls-2" x1="358.33" y1="601.61" x2="370.42" y2="616.95"/><path class="cls-2" d="M372.37,635.55q13.9,16.28,30.95,24.56"/><path class="cls-2" d="M362.91,654a26.31,26.31,0,0,0,5,5"/><path class="cls-2" d="M405.12,694.69c-10.82-8.36-19.85-16-26.34-22.75"/><path class="cls-1" d="M592.63,323.14a.1.1,0,0,0,.1-.11L586.33,247a.12.12,0,0,0-.15-.1"/><path class="cls-2" d="M513.38,278.32c-20.4-8.15-30.62-21.6-30.92-40.23a1.6,1.6,0,0,0-1.81-1.47l-26.1,3.12A42,42,0,0,1,435,237.58c-8-3-10.94-7.22-8.92-12.77,1.56-4.29,5.6-7.37,10.42-8.44,6.76-1.36,18.79-4.17,18.79-4.17s9.84-2.61,14.5-4.51c16.12-6.57,31.3-7.15,44.6,4.25a73.27,73.27,0,0,0,6.83,5.26c27.69,18.46,51.19,30.93,65.1,29.62-.66-4.41,4.82-5.72,13.21-5.56l8,86.39c-8,1-14.78,1.08-14.76-4.51-19.16-12.62-58.61,17.86-111.81-5.47a11.44,11.44,0,0,0-4.88-1A342.61,342.61,0,0,0,409.73,325a17.22,17.22,0,0,1-9.06-.31c-6.16-2-8.58-6.78-7.4-14.2a.46.46,0,0,0-.65-.46c-19.81,7.93-34-.26-28.73-12.54a.37.37,0,0,0-.46-.48c-22.71,5.46-33.86-14.49-6.95-25.32a.31.31,0,0,0,0-.58c-7.34-3.44-10.74-7.75-9.1-13.18a11.71,11.71,0,0,1,5-6.36c25.67-16.55,53.61-26,73.23-25.14"/><path class="cls-1" d="M607.5,327.65l.62,4.34a2.67,2.67,0,0,0,2.54,2.19l39.19,2.12a2.4,2.4,0,0,0,2.66-2.46l-7.74-105.48a2.7,2.7,0,0,0-3.25-2.28L601,233.89a2.32,2.32,0,0,0-2,2.49l.53,4.88Z"/><path class="cls-2" d="M356.76,271.44c28.06-12.52,54.58-22.93,70.75-18.8"/><path class="cls-2" d="M363.81,297.05C393.59,281.34,421,271.17,442,275.8"/><path class="cls-2" d="M392.79,309.94c20.79-8.7,39.3-13.79,52.76-12"/><path class="cls-2" d="M550.65,273.55a49.16,49.16,0,0,1,2.87,32.59"/><path class="cls-1" d="M665.24,680.59s-.1.06-.13,0l-45-61.79a.17.17,0,0,1,0-.2"/><path class="cls-2" d="M620.06,618.7c-2.43-3.83-6.6-.12-11.6,7.17l50.63,70.77c5.49-6.06,9.68-11.84,6.08-15.95,3.54-25.72,60.45-31.68,80-78.1a110.94,110.94,0,0,1-17.68,7,11.86,11.86,0,0,1-6.64.22c-9.17-2.6-10.15-15.92-2.4-26.43-10.56,1-14.39-8.91-10.39-19.74a23.12,23.12,0,0,1,6.87-9.82c14.62-12.08,41.48-37.06,67.49-61.16a23.16,23.16,0,0,0,5-6.5c4.66-9.16,2.17-18-3.58-20.69-3.43-1.59-7.48-.43-10.78,2.61l-58.63,54a2.26,2.26,0,0,1-2.59.52l-5.31-3c-.22-.11-.23-.18,0-.43l50-67.59a33,33,0,0,0,4.59-8.47c4.92-13.64-1.24-21.94-9.63-19.27a16.25,16.25,0,0,0-7.56,5.86l-53,69.08a20.81,20.81,0,0,1-9.45,7.2L660,513.35a28.22,28.22,0,0,0-12.65,9,41.7,41.7,0,0,0-7.5,14.62l-7.56,36.44a88.93,88.93,0,0,0-1.72,19.12C630.68,605.19,627,613.71,620.06,618.7Z"/><path class="cls-1" d="M659.09,696.64l2.42,3.74a3.7,3.7,0,0,1-.14,3.79l-22.45,35.05c-.88,1.37-2.35,1.58-3.19.46l-63-84.7a3.67,3.67,0,0,1,.51-4.47l29.66-28.87a1.74,1.74,0,0,1,2.79.16l2.81,4.07Z"/><path class="cls-2" d="M687.42,502.42l16,14.77a25,25,0,0,0,5.73,4l2.88,1.46c.74.37,1.5.67,2.25,1,10.33,4.26,11,17.44,2.92,25-3.68,3.47-8.14,4.64-12.2,3.63-8-2-15.35-6.89-22.5-13.08"/><path class="cls-2" d="M688.72,544.19a67.21,67.21,0,0,1-3.66,6.56,7.69,7.69,0,0,0-.73,6.87c7.78,18.41,7.73,39.41-1.83,63.58"/><line class="cls-2" x1="718.47" y1="583.37" x2="740.47" y2="569.56"/><path class="cls-2" d="M745.19,602.59l13.53-14.91a27.33,27.33,0,0,0,3.72-5.09c6.08-11,2.41-21.06-6.44-21.79-.24,0-.33-.39-.17-.66,13.11-21.33,5.87-34.07-7.2-36.25"/><line class="cls-3" x1="505.09" y1="476.43" x2="505.6" y2="885.72"/><line class="cls-3" x1="505.09" y1="476.43" x2="867.07" y2="272.21"/><line class="cls-3" x1="505.09" y1="476.43" x2="143.52" y2="272.04"/><path class="cls-3" d="M867.06,281.28l-.39,391a15.65,15.65,0,0,1-8,13.58l-345,195.31a16.4,16.4,0,0,1-16.1,0L151.09,684.63a15.63,15.63,0,0,1-8-13.6l.42-389.94a15.64,15.64,0,0,1,8-13.58L497,72A16.39,16.39,0,0,1,513,72L859,267.67A15.63,15.63,0,0,1,867.06,281.28Z"/></g></svg>