<svg id="Layer_1" data-name="Layer 1" xmlns="http://www.w3.org/2000/svg" viewBox="0 0 86.97 147.8"><defs><style>.cls-1{fill:#f99419;}</style></defs><title>thinnn</title><path class="cls-1" d="M151.2,176.78a98.93,98.93,0,0,1,1.5-20q1.7-9,9.5-17.2,4.4-4.61,9.2-9a122.58,122.58,0,0,0,8.8-8.9,53.35,53.35,0,0,0,6.7-9.3,20.87,20.87,0,0,0,2.7-10.4,24.31,24.31,0,0,0-2.11-10.1,23.48,23.48,0,0,0-6.12-8.2,29.13,29.13,0,0,0-9.83-5.5,40.71,40.71,0,0,0-13.24-2,32.15,32.15,0,0,0-13.24,2.6,26.82,26.82,0,0,0-9.73,7.2,31.37,31.37,0,0,0-5.92,10.7A38.88,38.88,0,0,0,127.6,110h-12a42.63,42.63,0,0,1,2.2-18.2,38.22,38.22,0,0,1,8.9-14.1,40.42,40.42,0,0,1,14.1-9.1,49.2,49.2,0,0,1,18-3.2,57.71,57.71,0,0,1,18.3,2.7,39.39,39.39,0,0,1,13.7,7.6,32.75,32.75,0,0,1,8.6,11.9,38.7,38.7,0,0,1,3,15.4,28.12,28.12,0,0,1-3.9,15.1,60.53,60.53,0,0,1-9.5,11.7q-5.59,5.4-11.6,10.9A63.28,63.28,0,0,0,167,153a23.38,23.38,0,0,0-3.8,11.5q-.4,6.3-.4,12.3Zm-1.2,36.4v-17.6h14.6v17.6Z" transform="translate(-115.43 -65.38)"/></svg>