<svg id="Layer_1" data-name="Layer 1" xmlns="http://www.w3.org/2000/svg" viewBox="0 0 274 191.73"><defs><style>.cls-1{fill:#5dfdcb;}</style></defs><title>rock</title><path class="cls-1" d="M78.06,76.25c7-.47,14.47,1.15,21.65,1.2,24.75.19,46.31-18.2,70.93-20.82,11.87-1.26,23.78,1.23,35.42,3.91q19.14,4.41,38.09,9.55c7.32,2,14.76,4.12,21.1,8.35,8.81,5.87,14.82,15.41,18.18,25.56,4.73,14.31,4.57,30.06.66,44.61a89.88,89.88,0,0,1-42.57,54.74c-20,11.11-43.36,13.79-65.68,18.66-21.4,4.68-42.29,11.53-62.89,19-6.62,2.42-13.27,4.92-20.2,6.09-24.09,4.07-59.85-5.94-72.92-28.57-4.56-7.9-8.38-21.37-6.2-30.47,8.48-35.45,18.7-71.23,42.86-99.27,3.73-4.33,7.88-8.51,13.11-10.7A25.89,25.89,0,0,1,78.06,76.25Z" transform="translate(-13 -56.3)"/></svg>