<svg xmlns="http://www.w3.org/2000/svg" viewBox="0 0 222.43 221.54"><defs><style>.cls-1{fill:#5dfdcb;}</style></defs><title>spiderman</title><g id="Layer_3" data-name="Layer 3"><path class="cls-1" d="M120.69,172.27a112.11,112.11,0,0,0-7.47,26.17,26.16,26.16,0,0,0,2.44,16.37c7.93,15.39,18.93,29.79,31.25,43.75a.52.52,0,0,0,.61.11c2-1,4.22-.79,6.58.06a.51.51,0,0,0,.54-.12c12.75-13.55,24.05-27.87,32.15-43.89a26.17,26.17,0,0,0,2.56-15.39,91.71,91.71,0,0,0-8-26.72.51.51,0,0,1,.65-.68A91.84,91.84,0,0,1,214.76,195a.51.51,0,0,1,.11.47c-7.35,28.43-27.54,48.18-52.67,64.6a.5.5,0,0,0,.35.91c32.94-6.37,59.49-27.6,74-76.77a.51.51,0,0,0-.23-.58l-31.77-18.29a.5.5,0,0,1,.3-.93l36.55,3.85a.5.5,0,0,1,.45.48c1,20.52-7.29,41.05-17.57,61.59a.5.5,0,0,0,.76.61c19.81-16.82,32.47-42,35.37-78.64a.5.5,0,0,0-.5-.55H207.15a.5.5,0,0,1-.18-1c29-11.81,49.84-22.23,54.44-29.93a.54.54,0,0,0,.07-.33C258.55,97,248.83,77,230,62a.5.5,0,0,0-.76.61c9.09,20.34,15.37,38.13,13.69,48.63a.51.51,0,0,1-.22.35c-14.9,9.79-30,17.39-45.27,22a.51.51,0,0,1-.48-.86c22.78-20.41,37.6-35.39,35.59-38.87-10-27.56-29.29-46.91-61.91-54.35a.5.5,0,0,0-.41.89c16.39,12.4,31.08,27.52,40.49,51.15a.47.47,0,0,1,0,.46q-16.14,25.34-43.6,31.69a.51.51,0,0,1-.61-.59c1.09-6.3.91-11.67-1.11-15.68a.47.47,0,0,1-.05-.26c.41-4.12-.81-6.91-3.3-8.65a.51.51,0,0,0-.8.4,9.64,9.64,0,0,1-2,6.12.51.51,0,0,1-.41.2h-15a.51.51,0,0,1-.44-.24,12.9,12.9,0,0,1-2-7.1.5.5,0,0,0-.78-.45c-2.59,1.69-3.58,4.31-3.31,7.67a.45.45,0,0,1,0,.23c-2.61,5.72-2.5,11.29-1.16,16.78a.5.5,0,0,1-.54.62C118.93,120.73,104.33,111,92,93a.57.57,0,0,1-.08-.42C97,72.06,113,55.43,133.35,40.39a.5.5,0,0,0-.4-.89Q84.25,50.72,69.06,94.86c-1.26,4.71,11.83,17.85,36.14,37.58a.5.5,0,0,1-.48.86c-21-7.07-37.85-14.27-45.89-21.77a.54.54,0,0,1-.15-.29c-1.91-10.63,5-28.84,13.57-48.36a.5.5,0,0,0-.8-.57c-19.66,18.2-31,37.26-32.4,57.32a.37.37,0,0,0,0,.11c.69,7,23.28,17.72,55.52,30.07a.49.49,0,0,1-.16,1l-53.81,1a.5.5,0,0,0-.49.54c2.16,35.53,15.36,60.44,35.51,78.66a.5.5,0,0,0,.79-.57c-8.37-19.06-18.66-37.32-16.71-60.62a.5.5,0,0,1,.43-.46l35.46-4.79a.5.5,0,0,1,.32.92L65.23,183.65a.51.51,0,0,0-.24.54c7.31,35.1,28.54,62.54,74.48,76.36a.5.5,0,0,0,.42-.89c-25.14-17.16-46.68-36.53-53.18-65.17a.52.52,0,0,1,.17-.5A223.94,223.94,0,0,1,120,171.64.49.49,0,0,1,120.69,172.27Z" transform="translate(-39.05 -39.46)"/></g></svg>