<svg xmlns="http://www.w3.org/2000/svg" viewBox="0 0 996.76 967.32"><defs><style>.cls-1,.cls-2{fill:none;stroke-miterlimit:10;}.cls-1{stroke:#5dfdcb;stroke-linecap:round;stroke-width:8px;}.cls-2{stroke:#7186f5;stroke-width:15px;}</style></defs><title>Artboard 4</title><g id="Layer_3" data-name="Layer 3"><path class="cls-1" d="M566.08,368.52s5.52,1.8,11.85-2.12,52.62-33.14,54-35.55c1.57-2.69-1.77-7-5.07-9-4.91-3-11.88-16.31-13.37-26s-4-14.19-8.79-17.36-15.52-11.28-18.18-15.69-7-14.45-13.74-15.76a20.6,20.6,0,0,0-2.09-.29c-8.28-.74-14.66,4.87-12.3,10.55,4.14,9.94,5.79,18.16,9,28.45"/><path class="cls-1" d="M577.9,264.82a16.84,16.84,0,0,1,6,4.85c1.51,2.09,10.41,20.93,5.2,24.45s-11.36,1.87-13.38.39a3.59,3.59,0,0,1,.2-6.09c2.48-1.67,14.39-2.25,14.39-2.25"/><path class="cls-1" d="M563.78,364.9a57.87,57.87,0,0,0-20.6-8.89c-12.66-2.85-32.55-9.29-36.58-12.26a117.62,117.62,0,0,1-16.94-16.19,51.11,51.11,0,0,0-11-9.68L373.13,239.51S358,228.33,368.83,221s20.84-.79,27.16,3.55c5.94,4.09,28.6,21.2,45.41,33.33s32.21,16.25,32.21,16.25"/><path class="cls-1" d="M480.77,277a38.63,38.63,0,0,0-6.95-16.88c-6.06-8.33-61.56-69.46-34.68-78.74,25.74-8.89,34.41,28.73,45.09,42.92s18.42,25.88,26.61,31.57"/><path class="cls-1" d="M518.16,253.13s8-8.36,17.21-8.12a28.05,28.05,0,0,1,7.6,1.3,27.08,27.08,0,0,1,11,6.54l4.45,4.45"/><path class="cls-1" d="M480.44,309.47s2.78-10.69,3.18-13,19.52-14.88,25-19.78,10.75-13,10.75-13"/><path class="cls-1" d="M514.77,277.69s12.54,3.11,19-4.55-6.36-11.88-9.77-8.08"/><path class="cls-1" d="M511.27,302.82s16.16-5.11,22.46-13.24c7-9,.08-16.44.08-16.44"/><path class="cls-1" d="M535.79,293.2a12.27,12.27,0,0,1,2.42,3.89c.71,2.1,1.21,13.5,17.23,11.84,16.45-1.7,11.93-8.92,10.24-11.38-1.45-2.13-13.62-5-25.59,5.33"/><path class="cls-1" d="M394.72,248.19q10.5-1.41,16.22-6.36"/><path class="cls-1" d="M423.61,269.52c5.83-1.15,10.05-3,13.93-7.27"/><path class="cls-1" d="M452.82,217.49c6.21,1.71,12.55,1.62,19.13-2"/><path class="cls-1" d="M468.09,240.68c6.61,1.9,13,1.45,19.06-2.41"/><path class="cls-1" d="M362.55,614.86a60.32,60.32,0,0,1,5.15,11.79c2.91,9.09,4.06,19.3,4,30.7l0,21.52,0,15.87c0,8.7.18,15.57,2.11,23.3.55,2.17-.76,3.33-2.6,2.29L342,703.82a5.86,5.86,0,0,1-2.71-4.08c-.55-4.68.86-8.57.89-23.11l.05-38.91c0-19.76-5.41-29.22-19.75-37.31l-8.18-4.61c-1.51-.85-2.73-.25-2.73,1.35l-.13,85.41c0,1.59-1.23,2.2-2.73,1.35l-26.11-14.73a5.72,5.72,0,0,1-2.72-4.43l.23-157.17m0-13.73.05-36.1c0-1.6,1.23-2.2,2.74-1.35l44,24.85c32.71,18.46,46.74,42.5,46.69,75.33l0,13.07c0,21.89-6.65,32.14-20.71,30.29M340,558.53l0-16.42c0-15.2-4.85-24.64-16-30.95l-11.62-6.56c-1.5-.85-2.73-.24-2.73,1.35v3.71m0,10.79L309.57,561a5.72,5.72,0,0,0,2.72,4.43l8.75,4.93c9.21,5.2,15.6,5.46,18-2.83"/><path class="cls-1" d="M761.6,498.32l0,6.14c.27,34.78-18.68,64-57.61,85l-15.72,8.47a5,5,0,0,0-2.66,3.79l.66,83.8a5,5,0,0,1-2.66,3.8L650.1,707.36c-1.48.8-2.69.39-2.7-.91l-.26-33m-.11-14-1.31-165.68a5,5,0,0,1,2.66-3.8L703,460.56c36.18-19.49,55.37-13.39,58.12,15.5M722.3,497.52c-1.32-11.42-7.91-11.9-19-5.91l-15.72,8.47a5,5,0,0,0-2.67,3.79l.23,28.7m.1,12.8.17,20.56c0,1.3,1.21,1.71,2.69.91l15.73-8.46c12.38-6.67,19.06-15.26,18.94-30.79l-.16-20.94"/><line class="cls-2" x1="498.39" y1="481.56" x2="498.89" y2="896"/><line class="cls-2" x1="498.39" y1="481.56" x2="855.29" y2="274.76"/><line class="cls-2" x1="498.39" y1="481.56" x2="141.89" y2="274.59"/><path class="cls-2" d="M855.28,284l-.39,395.92a15.9,15.9,0,0,1-7.9,13.75L506.83,891.39a15.77,15.77,0,0,1-15.87,0l-341.6-199a15.94,15.94,0,0,1-7.89-13.78l.42-394.85a15.9,15.9,0,0,1,7.9-13.75L490.37,72.05a15.78,15.78,0,0,1,15.85,0L847.37,270.16A15.92,15.92,0,0,1,855.28,284Z"/></g></svg>