<svg id="Layer_1" data-name="Layer 1" xmlns="http://www.w3.org/2000/svg" viewBox="0 0 246.54 175"><defs><style>.cls-1{fill:#fff;}.cls-1,.cls-2{stroke:#7186f5;stroke-linecap:round;stroke-miterlimit:10;stroke-width:3px;}.cls-2{fill:none;}</style></defs><title>win</title><line class="cls-1" x1="123.93" y1="35.98" x2="123.93" y2="173.5"/><line class="cls-1" x1="19" y1="173.5" x2="228" y2="173.5"/><circle class="cls-2" cx="123.5" cy="22.98" r="13"/><line class="cls-2" x1="39" y1="47.65" x2="111.32" y2="27.52"/><line class="cls-2" x1="136.5" y1="20.53" x2="207.71" y2="1.5"/><path class="cls-2" d="M103.53,169.22a2.94,2.94,0,0,1,2.93,2.87c0,.37,0,.75,0,1.12,0,19-16.9,34.36-37.74,34.36S31,192.19,31,173.21c0-.39,0-.78,0-1.17A3,3,0,0,1,34,169.18Z" transform="translate(-29.5 -64)"/><path class="cls-2" d="M213.21,122.41l23.87-56.69a.14.14,0,0,1,.26,0l23.87,56.69" transform="translate(-29.5 -64)"/><path class="cls-2" d="M271.59,123.45a3,3,0,0,1,2.93,2.86c0,.38,0,.75,0,1.13,0,19-16.9,34.35-37.74,34.35s-37.75-15.38-37.75-34.35q0-.59,0-1.17a2.93,2.93,0,0,1,2.93-2.86Z" transform="translate(-29.5 -64)"/><path class="cls-2" d="M44.5,168.44l23.87-56.7a.14.14,0,0,1,.26,0l23.87,56.7" transform="translate(-29.5 -64)"/></svg>