<svg id="Layer_2" data-name="Layer 2" xmlns="http://www.w3.org/2000/svg" viewBox="0 0 209.5 193.79"><defs><style>.cls-1,.cls-2,.cls-3,.cls-4{fill:none;stroke:#f99419;stroke-linecap:round;}.cls-1,.cls-3,.cls-4{stroke-linejoin:round;}.cls-1,.cls-2{stroke-width:10px;}.cls-2{stroke-miterlimit:10;}.cls-3{stroke-width:6px;}.cls-4{stroke-width:5px;}</style></defs><title>cart</title><polyline class="cls-1" points="5 5 33 10 80 130 195 120 204.5 46.5 47.5 46.5"/><path class="cls-2" d="M120,182l-18.81,16.85a11.94,11.94,0,0,0-3.91,11.27A11.58,11.58,0,0,0,98.93,214a12,12,0,0,0,10.1,5.22H232.12" transform="translate(-40 -52)"/><circle class="cls-3" cx="68.81" cy="179.42" r="9.44"/><circle class="cls-3" cx="181.84" cy="181.34" r="9.44"/><line class="cls-4" x1="66.41" y1="46.5" x2="66.41" y2="94.92"/><line class="cls-4" x1="88.84" y1="46.5" x2="88.84" y2="128.75"/><line class="cls-4" x1="111.27" y1="46.5" x2="111.27" y2="127.16"/><line class="cls-4" x1="133.71" y1="46.5" x2="133.71" y2="125.36"/><line class="cls-4" x1="155.93" y1="46.5" x2="155.93" y2="123.52"/><line class="cls-4" x1="178.37" y1="46.5" x2="178.37" y2="121.48"/><line class="cls-4" x1="58.42" y1="74.89" x2="200.32" y2="74.89"/><line class="cls-4" x1="68.28" y1="100.06" x2="197.38" y2="100.06"/></svg>