<svg id="Layer_1" data-name="Layer 1" xmlns="http://www.w3.org/2000/svg" viewBox="0 0 300 161.45"><defs><style>.cls-1,.cls-2{fill:none;stroke:#5dfdcb;stroke-miterlimit:10;stroke-width:3px;}.cls-2{stroke-linecap:round;}</style></defs><title>hand_paper</title><path class="cls-1" d="M214,112.89a.08.08,0,0,0,.07-.08l-.51-56.09a.07.07,0,0,0-.1-.07"/><path class="cls-2" d="M162.68,78.47C149.31,72.1,143.08,62,143.8,48.31a1,1,0,0,0-1.14-1.11L124.87,49a25.78,25.78,0,0,1-13.1-1.94c-5.24-2.32-7-5.51-5.39-9.56a10.27,10.27,0,0,1,7.47-6c4.63-.87,12.9-2.73,12.9-2.73s6.78-1.73,10-3.05c11.22-4.54,21.5-4.7,29.92,3.94a45.49,45.49,0,0,0,4.34,4c17.78,14.09,33,23.69,42.5,23-.23-3.26,3.54-4.12,9.2-3.85l1.06,63.7c-5.43.6-10,.53-9.74-3.59-12.32-9.63-40.49,12.08-75.26-6a7,7,0,0,0-3.24-.82,218.12,218.12,0,0,0-45.21,4.88,10.6,10.6,0,0,1-6.11-.39c-4.06-1.59-5.46-5.14-4.29-10.58a.3.3,0,0,0-.41-.35c-13.79,5.48-23-.81-18.78-9.75a.26.26,0,0,0-.29-.36C44.85,93.07,38.31,78.19,57,70.7a.23.23,0,0,0,0-.42c-4.78-2.67-6.86-5.9-5.49-9.87a9.07,9.07,0,0,1,3.73-4.58C73.46,44.12,92.8,37.69,106,38.66"/><path class="cls-1" d="M223.79,116.47l.2,3.21a1.76,1.76,0,0,0,1.61,1.65L252,123.61a1.78,1.78,0,0,0,1.92-1.77l.05-77.74a1.76,1.76,0,0,0-2.08-1.74l-27.78,5a1.79,1.79,0,0,0-1.46,1.8l.12,3.6Z"/><path class="cls-2" d="M57.23,70.56C76.81,61.86,95.25,54.68,106,58"/><path class="cls-2" d="M60.71,89.53c20.91-11,39.91-18,53.88-14.21"/><path class="cls-2" d="M79.64,99.55c14.48-6,27.24-9.44,36.24-7.88"/><path class="cls-2" d="M188.09,75.64a39,39,0,0,1,.32,24"/></svg>