<svg id="Layer_1" data-name="Layer 1" xmlns="http://www.w3.org/2000/svg" viewBox="0 0 300 161.45"><defs><style>.cls-1,.cls-2{fill:none;stroke:#5dfdcb;stroke-miterlimit:10;stroke-width:3px;}.cls-2{stroke-linecap:round;}</style></defs><title>hand_spock</title><path class="cls-1" d="M213,58.21c-2.59,2.52-8,2.57-10.9,2-5.73-1.06-9.18-3.4-14.35-8.2A16.43,16.43,0,0,0,184,49.37c-10.64-5.5-28.51-3.06-41.81-7.52l-31.06-10C105.39,30,99.23,34,99.09,40a6.29,6.29,0,0,0,1,3.72C91.41,40.21,85,40,82.55,45.32c-1.55,4.36,0,7.13,2.78,9.25a12.29,12.29,0,0,0,3.54,1.83l37.71,12.68a4.63,4.63,0,0,1,2.11,1.42,2.07,2.07,0,0,1,.14,2.79,3.4,3.4,0,0,1-2.48,1.27L77.92,78.31a7.35,7.35,0,0,0-5.1,2.51C69.3,85,71.61,91.67,78.93,92.36a6.9,6.9,0,0,0-2,4.33,8.75,8.75,0,0,0,8.82,9.51l65.67.57c3.45-.36,4.83,1.22,4,4.92-8,11.45-14,21.28-16.37,28-3.78,10.16,3.43,15.58,9.31,11.34a9.37,9.37,0,0,0,2.34-2.56c7.88-12.27,15.46-18.58,24.4-21.32,4.1-1.26,7.26-4.55,10.12-7.74,2.71-3,5.68-6.34,8.9-8.47a12.78,12.78,0,0,1,7.26-2.08c5.66-.14,9.45,1.35,12,3.9"/><line class="cls-1" x1="130.24" y1="88.76" x2="78.93" y2="92.36"/><line class="cls-1" x1="135.8" y1="58.6" x2="100.04" y2="43.7"/><path class="cls-2" d="M134.89,64.31a11.42,11.42,0,0,1,4.23-10.25"/><path class="cls-2" d="M132,94.22a12.87,12.87,0,0,1-1-10.87"/><path class="cls-1" d="M213.34,112.84a.07.07,0,0,0,.07-.08l-.47-56a.08.08,0,0,0-.1-.08"/><path class="cls-2" d="M212.94,56.67c-.22-3.25,3.54-4.12,9.19-3.84l1,63.6c-5.42.59-10,.52-9.73-3.59"/><path class="cls-1" d="M223.14,116.43l.19,3.2a1.76,1.76,0,0,0,1.61,1.65l26.32,2.29a1.76,1.76,0,0,0,1.91-1.75l.12-77.62a1.76,1.76,0,0,0-2.08-1.74l-27.74,5A1.77,1.77,0,0,0,222,49.23l.11,3.6Z"/></svg>