<svg id="Layer_1" data-name="Layer 1" xmlns="http://www.w3.org/2000/svg" viewBox="0 0 272.23 181.3"><defs><style>.cls-1{fill:#5dfdcb;}</style></defs><title>glock</title><path class="cls-1" d="M284,80.39l-9.57-7.66a5.36,5.36,0,0,0-6.78.07l-1.15,1A5.37,5.37,0,0,1,263.06,75H59a5.39,5.39,0,0,1-3.49-1.29l-2-1.72a5.37,5.37,0,0,0-7,0l-2,1.72A5.39,5.39,0,0,1,41,75H37.89a5.36,5.36,0,0,0-5.34,4.86l-3.11,33.39a5.39,5.39,0,0,0,4.08,5.7c10.16,2.6,17.06,7.8,18.4,17.43a5.07,5.07,0,0,1,0,1.23c-2.12,23.63-29.57,58.56-38,86.74a5.31,5.31,0,0,0,2,5.82l11.72,8.46a5.38,5.38,0,0,1,1.9,6.18,5.35,5.35,0,0,0,5,7.19H85.48a5.36,5.36,0,0,0,4.92-3.23l30.27-70a5.3,5.3,0,0,1,.88-1.41c4.69-5.22,10.9-7.11,19.48-3.76a5.59,5.59,0,0,0,2,.4h52.59a5.36,5.36,0,0,0,5.36-5.36v-27a5.37,5.37,0,0,1,2.09-4.25l9.46-7.28a5.38,5.38,0,0,1,3.27-1.11H274a5.39,5.39,0,0,0,3.49-1.29l3.73-3.2a5.4,5.4,0,0,0,1.87-3.82l.82-17.21a5.39,5.39,0,0,1,.89-2.72l.28-.41a5.32,5.32,0,0,0,.9-3V84.58A5.37,5.37,0,0,0,284,80.39Zm-93,79.48a5.13,5.13,0,0,1-5.13,5.13H145.13a5.13,5.13,0,0,1-5.13-5.13V145.62a.82.82,0,0,1,1.54-.38c4.87,9.35,12,15.12,23.58,13.87a.42.42,0,0,0,.23-.72c-7.14-6.72-12.17-13.46-12.28-20.21A5.12,5.12,0,0,1,158.2,133h27.67a5.13,5.13,0,0,1,5.13,5.13Z" transform="translate(-13.77 -70.7)"/></svg>