<svg id="Layer_2" data-name="Layer 2" xmlns="http://www.w3.org/2000/svg" viewBox="0 0 171.91 244"><defs><style>.cls-1{fill:#5dfdcb;}</style></defs><title>spock</title><path class="cls-1" d="M179.24,77.15a78,78,0,0,1,34.39,119.77q1,5.54,1.86,11.14A86.57,86.57,0,0,0,174.43,66.58Q176.89,71.79,179.24,77.15Z" transform="translate(-65.94 -25.28)"/><path class="cls-1" d="M201,210.63a78,78,0,0,1-86.77,7.7q-3,3.1-6,6.4A86.61,86.61,0,0,0,205.54,218Q203.28,214.13,201,210.63Z" transform="translate(-65.94 -25.28)"/><path class="cls-1" d="M83.72,186.86A78,78,0,0,1,120.82,78.7c1.84-3.76,3.78-7.53,5.75-11.3A86.58,86.58,0,0,0,81.24,199.14Q82.41,193,83.72,186.86Z" transform="translate(-65.94 -25.28)"/><path class="cls-1" d="M151.42,25.28c-55.29,83-73.33,163.82-80,244,36.46-46.11,71.36-84.95,98.54-87.83a9.3,9.3,0,0,1,6.25,1.59c14.07,9.68,29.18,32.27,45.21,66.24C211.61,158.34,189.36,82.38,151.42,25.28Zm10.5,108.52,2,16-12-10-13,10,2-16-13-7,16-3,8-61,7,61,16,3Z" transform="translate(-65.94 -25.28)"/></svg>