<svg id="Layer_1" data-name="Layer 1" xmlns="http://www.w3.org/2000/svg" viewBox="0 0 245.49 208.52"><defs><style>.cls-1{fill:#5dfdcb;}.cls-2{fill:#fff;}</style></defs><title>wizard</title><path class="cls-1" d="M96.06,174.23a3,3,0,0,0,2.21-2.06c28.35-84,47.05-131.91,61-133.9,10.33-.78,35,23.61,48.11,44.55a.24.24,0,0,1-.37.29c-13.18-12-25.39-19.42-36.15-19.83a4.36,4.36,0,0,0-3.92,1.92c-6.54,10.45,12,57,30,102.29a11.75,11.75,0,0,0,.72,1.52,25.72,25.72,0,0,0,1.87,2.8,7.85,7.85,0,0,0,5,2.88c45,6.87,68.65,18.43,68.22,35.29,0,49-245.44,49-245.44,0C26,193.41,50.67,181.85,95.84,174.27Z" transform="translate(-27.26 -38.25)"/><path class="cls-2" d="M98.27,172.17c33.53,8.72,67.26,9.13,101.24-.36l8.8,3.47c-38.9,21-88.24,21-121,.52Z" transform="translate(-27.26 -38.25)"/></svg>